<svg width="200" height="200" viewBox="0 0 200 200" fill="none" xmlns="http://www.w3.org/2000/svg">
<g clip-path="url(#clip0_110_43)">
<path d="M100 197.222C153.694 197.222 197.222 153.694 197.222 99.9999C197.222 46.3056 153.694 2.77771 100 2.77771C46.3057 2.77771 2.77783 46.3056 2.77783 99.9999C2.77783 153.694 46.3057 197.222 100 197.222Z" fill="white" stroke="#0305DB" stroke-width="5.77617"/>
<path fill-rule="evenodd" clip-rule="evenodd" d="M80.6308 73.4386C82.3673 75.5613 86.786 83.4262 87.7246 87.365H112.995C113.934 83.4297 118.347 75.565 120.084 73.4441C123.051 69.8243 124.919 65.4301 125.467 60.7816C126.006 56.1421 125.199 51.4453 123.139 47.2527C121.062 43.0291 117.83 39.4801 113.818 37.0163C109.772 34.5275 105.114 33.2108 100.364 33.213C95.6037 33.213 90.9394 34.5308 86.9088 37.0126C82.8967 39.4755 79.6637 43.0239 77.5839 47.2473C75.5237 51.4383 74.7142 56.1338 75.2518 60.7726C75.7915 65.4061 77.6561 69.7979 80.6308 73.4386ZM102.165 47.6535L91.3348 63.8989H98.555V74.7292L109.385 58.4838H102.165V47.6535Z" fill="#0305DB"/>
<path d="M87.7244 92.7792C87.7244 92.301 87.9145 91.8418 88.2531 91.503C88.5916 91.1651 89.0507 90.9745 89.5294 90.9745H111.19C111.669 90.9745 112.128 91.1651 112.467 91.503C112.805 91.8418 112.995 92.301 112.995 92.7792C112.995 93.2584 112.805 93.7176 112.467 94.0564C112.128 94.3943 111.669 94.5849 111.19 94.5849H89.5294C89.0507 94.5849 88.5916 94.3943 88.2531 94.0564C87.9145 93.7176 87.7244 93.2584 87.7244 92.7792ZM112.995 98.1944H87.7244V101.805C87.7244 102.762 88.1047 103.681 88.7817 104.357C89.4588 105.035 90.377 105.415 91.3345 105.415H109.385C110.342 105.415 111.261 105.035 111.937 104.357C112.615 103.681 112.995 102.762 112.995 101.805V98.1944Z" fill="#0305DB"/>
<path d="M44.6518 129.63C44.2012 129.144 43.7623 128.821 43.3348 128.659C42.9189 128.497 42.4973 128.417 42.0698 128.417C41.4345 128.417 40.8568 128.532 40.337 128.763C39.8287 128.983 39.3897 129.295 39.02 129.699C38.6503 130.092 38.3615 130.554 38.1536 131.085C37.9572 131.617 37.859 132.188 37.859 132.801C37.859 133.459 37.9572 134.066 38.1536 134.62C38.3615 135.175 38.6503 135.654 39.02 136.058C39.3897 136.463 39.8287 136.78 40.337 137.011C40.8568 137.243 41.4345 137.358 42.0698 137.358C42.5666 137.358 43.046 137.243 43.5081 137.011C43.9818 136.769 44.4207 136.388 44.8251 135.868L46.6272 137.15C46.0727 137.913 45.3969 138.467 44.5998 138.814C43.8027 139.16 42.9536 139.334 42.0525 139.334C41.1052 139.334 40.233 139.183 39.4359 138.883C38.6503 138.571 37.9688 138.138 37.3911 137.583C36.8251 137.017 36.3803 136.341 36.0568 135.556C35.7334 134.77 35.5716 133.898 35.5716 132.939C35.5716 131.957 35.7334 131.068 36.0568 130.271C36.3803 129.462 36.8251 128.775 37.3911 128.209C37.9688 127.643 38.6503 127.209 39.4359 126.909C40.233 126.597 41.1052 126.441 42.0525 126.441C42.8843 126.441 43.6525 126.591 44.3572 126.892C45.0735 127.18 45.7377 127.677 46.35 128.382L44.6518 129.63ZM47.4862 134.863C47.4862 134.204 47.6017 133.609 47.8328 133.078C48.0754 132.535 48.3989 132.073 48.8032 131.692C49.2075 131.31 49.6869 131.016 50.2415 130.808C50.796 130.6 51.3851 130.496 52.009 130.496C52.6328 130.496 53.222 130.6 53.7765 130.808C54.331 131.016 54.8104 131.31 55.2147 131.692C55.6191 132.073 55.9368 132.535 56.1678 133.078C56.4104 133.609 56.5317 134.204 56.5317 134.863C56.5317 135.521 56.4104 136.122 56.1678 136.665C55.9368 137.196 55.6191 137.653 55.2147 138.034C54.8104 138.415 54.331 138.71 53.7765 138.918C53.222 139.126 52.6328 139.23 52.009 139.23C51.3851 139.23 50.796 139.126 50.2415 138.918C49.6869 138.71 49.2075 138.415 48.8032 138.034C48.3989 137.653 48.0754 137.196 47.8328 136.665C47.6017 136.122 47.4862 135.521 47.4862 134.863ZM49.5656 134.863C49.5656 135.186 49.6176 135.498 49.7216 135.799C49.8371 136.099 49.9989 136.365 50.2068 136.596C50.4263 136.827 50.6862 137.011 50.9866 137.15C51.2869 137.289 51.6277 137.358 52.009 137.358C52.3902 137.358 52.731 137.289 53.0313 137.15C53.3317 137.011 53.5859 136.827 53.7938 136.596C54.0133 136.365 54.175 136.099 54.279 135.799C54.3945 135.498 54.4523 135.186 54.4523 134.863C54.4523 134.539 54.3945 134.227 54.279 133.927C54.175 133.627 54.0133 133.361 53.7938 133.13C53.5859 132.899 53.3317 132.714 53.0313 132.575C52.731 132.437 52.3902 132.367 52.009 132.367C51.6277 132.367 51.2869 132.437 50.9866 132.575C50.6862 132.714 50.4263 132.899 50.2068 133.13C49.9989 133.361 49.8371 133.627 49.7216 133.927C49.6176 134.227 49.5656 134.539 49.5656 134.863ZM58.4786 130.704H60.454V132.038H60.4887C60.6851 131.622 60.9855 131.264 61.3898 130.964C61.7941 130.652 62.3429 130.496 63.036 130.496C63.5905 130.496 64.0584 130.588 64.4396 130.773C64.8324 130.958 65.1501 131.201 65.3927 131.501C65.6353 131.801 65.8086 132.148 65.9125 132.541C66.0165 132.934 66.0685 133.344 66.0685 133.771V139.022H63.9891V134.811C63.9891 134.58 63.9775 134.326 63.9544 134.048C63.9313 133.76 63.8678 133.494 63.7638 133.251C63.6714 132.997 63.5212 132.789 63.3133 132.627C63.1053 132.454 62.8223 132.367 62.4642 132.367C62.1176 132.367 61.823 132.425 61.5804 132.541C61.3494 132.656 61.153 132.812 60.9912 133.009C60.841 133.205 60.7313 133.43 60.662 133.684C60.5927 133.939 60.558 134.204 60.558 134.482V139.022H58.4786V130.704ZM72.8651 133.009C72.4607 132.443 71.9178 132.16 71.2362 132.16C70.9589 132.16 70.6874 132.229 70.4217 132.367C70.156 132.506 70.0232 132.731 70.0232 133.043C70.0232 133.297 70.1329 133.482 70.3524 133.598C70.5719 133.713 70.8492 133.811 71.1842 133.892C71.5192 133.973 71.8773 134.06 72.2586 134.152C72.6513 134.233 73.0152 134.366 73.3503 134.551C73.6853 134.724 73.9625 134.967 74.182 135.279C74.4015 135.591 74.5113 136.018 74.5113 136.561C74.5113 137.058 74.4015 137.479 74.182 137.826C73.9741 138.161 73.6968 138.432 73.3503 138.64C73.0152 138.848 72.634 138.999 72.2066 139.091C71.7791 139.183 71.3517 139.23 70.9243 139.23C70.2773 139.23 69.6824 139.137 69.1394 138.952C68.5965 138.767 68.1113 138.432 67.6838 137.947L69.0701 136.648C69.3358 136.948 69.6188 137.196 69.9192 137.393C70.2311 137.578 70.6066 137.67 71.0456 137.67C71.1957 137.67 71.3517 137.653 71.5134 137.618C71.6752 137.583 71.8253 137.526 71.964 137.445C72.1026 137.364 72.2124 137.266 72.2932 137.15C72.3856 137.023 72.4318 136.879 72.4318 136.717C72.4318 136.428 72.3221 136.214 72.1026 136.076C71.8831 135.937 71.6059 135.827 71.2708 135.747C70.9358 135.654 70.5719 135.573 70.1791 135.504C69.7979 135.423 69.4398 135.302 69.1048 135.14C68.7698 134.967 68.4925 134.73 68.273 134.43C68.0535 134.129 67.9438 133.713 67.9438 133.182C67.9438 132.72 68.0362 132.321 68.221 131.986C68.4174 131.64 68.6716 131.357 68.9835 131.137C69.2954 130.918 69.6535 130.756 70.0578 130.652C70.4622 130.548 70.8723 130.496 71.2882 130.496C71.8427 130.496 72.3914 130.594 72.9344 130.791C73.4773 130.975 73.9163 131.299 74.2513 131.761L72.8651 133.009ZM75.1582 132.471V130.704H76.8738V128.295H78.9532V130.704H81.2406V132.471H78.9532V136.11C78.9532 136.526 79.0283 136.856 79.1785 137.098C79.3402 137.341 79.6521 137.462 80.1142 137.462C80.299 137.462 80.5012 137.445 80.7207 137.41C80.9402 137.364 81.1135 137.295 81.2406 137.202V138.952C81.0211 139.056 80.7496 139.126 80.4261 139.16C80.1142 139.206 79.8369 139.23 79.5943 139.23C79.0398 139.23 78.5835 139.166 78.2254 139.039C77.8788 138.923 77.6016 138.744 77.3936 138.502C77.1972 138.248 77.0586 137.936 76.9777 137.566C76.9084 137.196 76.8738 136.769 76.8738 136.284V132.471H75.1582ZM88.0623 137.878H88.0103C87.71 138.352 87.3287 138.698 86.8666 138.918C86.4045 139.126 85.8962 139.23 85.3417 139.23C84.9605 139.23 84.585 139.178 84.2154 139.074C83.8573 138.97 83.5338 138.814 83.245 138.606C82.9677 138.398 82.7424 138.138 82.5692 137.826C82.3959 137.514 82.3092 137.15 82.3092 136.734C82.3092 136.284 82.3901 135.902 82.5518 135.591C82.7136 135.267 82.9273 135.001 83.193 134.793C83.4702 134.574 83.7879 134.401 84.1461 134.274C84.5042 134.147 84.8739 134.054 85.2551 133.996C85.6479 133.927 86.0406 133.887 86.4334 133.875C86.8262 133.852 87.1959 133.84 87.5424 133.84H88.0623V133.615C88.0623 133.095 87.8832 132.708 87.5251 132.454C87.167 132.188 86.7107 132.056 86.1562 132.056C85.7172 132.056 85.3071 132.136 84.9258 132.298C84.5446 132.448 84.2154 132.656 83.9381 132.922L82.8464 131.83C83.3085 131.357 83.8457 131.016 84.458 130.808C85.0818 130.6 85.723 130.496 86.3814 130.496C86.9706 130.496 87.4674 130.565 87.8717 130.704C88.276 130.831 88.611 130.999 88.8767 131.206C89.1424 131.414 89.3446 131.657 89.4832 131.934C89.6334 132.2 89.7374 132.471 89.7952 132.749C89.8645 133.026 89.9049 133.297 89.9165 133.563C89.928 133.817 89.9338 134.043 89.9338 134.239V139.022H88.0623V137.878ZM87.941 135.296H87.5078C87.219 135.296 86.8955 135.308 86.5374 135.331C86.1793 135.354 85.8385 135.411 85.515 135.504C85.2031 135.585 84.9374 135.712 84.7179 135.885C84.4984 136.047 84.3887 136.278 84.3887 136.578C84.3887 136.775 84.4291 136.942 84.51 137.081C84.6024 137.208 84.7179 137.318 84.8565 137.41C84.9952 137.502 85.1511 137.572 85.3244 137.618C85.4977 137.653 85.671 137.67 85.8443 137.67C86.5605 137.67 87.0861 137.502 87.4212 137.167C87.7677 136.821 87.941 136.353 87.941 135.764V135.296ZM92.1711 130.704H94.1465V132.038H94.1812C94.3776 131.622 94.6779 131.264 95.0822 130.964C95.4866 130.652 96.0353 130.496 96.7285 130.496C97.283 130.496 97.7508 130.588 98.1321 130.773C98.5248 130.958 98.8425 131.201 99.0851 131.501C99.3277 131.801 99.501 132.148 99.605 132.541C99.709 132.934 99.7609 133.344 99.7609 133.771V139.022H97.6815V134.811C97.6815 134.58 97.67 134.326 97.6469 134.048C97.6238 133.76 97.5602 133.494 97.4563 133.251C97.3638 132.997 97.2137 132.789 97.0057 132.627C96.7978 132.454 96.5147 132.367 96.1566 132.367C95.81 132.367 95.5155 132.425 95.2729 132.541C95.0418 132.656 94.8454 132.812 94.6837 133.009C94.5335 133.205 94.4238 133.43 94.3545 133.684C94.2851 133.939 94.2505 134.204 94.2505 134.482V139.022H92.1711V130.704ZM101.151 132.471V130.704H102.867V128.295H104.946V130.704H107.233V132.471H104.946V136.11C104.946 136.526 105.021 136.856 105.171 137.098C105.333 137.341 105.645 137.462 106.107 137.462C106.292 137.462 106.494 137.445 106.713 137.41C106.933 137.364 107.106 137.295 107.233 137.202V138.952C107.014 139.056 106.742 139.126 106.419 139.16C106.107 139.206 105.83 139.23 105.587 139.23C105.033 139.23 104.576 139.166 104.218 139.039C103.872 138.923 103.594 138.744 103.386 138.502C103.19 138.248 103.051 137.936 102.971 137.566C102.901 137.196 102.867 136.769 102.867 136.284V132.471H101.151ZM114.175 126.753H118.299C118.888 126.753 119.454 126.811 119.997 126.926C120.552 127.042 121.037 127.238 121.453 127.515C121.868 127.781 122.198 128.145 122.44 128.607C122.694 129.058 122.822 129.624 122.822 130.305C122.822 131.079 122.689 131.703 122.423 132.177C122.157 132.65 121.799 133.02 121.349 133.286C120.898 133.54 120.372 133.713 119.772 133.806C119.183 133.898 118.565 133.944 117.918 133.944H116.358V139.022H114.175V126.753ZM117.675 132.073C117.987 132.073 118.31 132.061 118.645 132.038C118.98 132.015 119.287 131.946 119.564 131.83C119.853 131.715 120.084 131.541 120.257 131.31C120.442 131.079 120.534 130.756 120.534 130.34C120.534 129.959 120.453 129.658 120.292 129.439C120.13 129.208 119.922 129.035 119.668 128.919C119.414 128.792 119.131 128.711 118.819 128.676C118.507 128.642 118.206 128.624 117.918 128.624H116.358V132.073H117.675ZM124.162 134.863C124.162 134.204 124.277 133.609 124.508 133.078C124.751 132.535 125.074 132.073 125.479 131.692C125.883 131.31 126.362 131.016 126.917 130.808C127.471 130.6 128.06 130.496 128.684 130.496C129.308 130.496 129.897 130.6 130.452 130.808C131.006 131.016 131.486 131.31 131.89 131.692C132.294 132.073 132.612 132.535 132.843 133.078C133.086 133.609 133.207 134.204 133.207 134.863C133.207 135.521 133.086 136.122 132.843 136.665C132.612 137.196 132.294 137.653 131.89 138.034C131.486 138.415 131.006 138.71 130.452 138.918C129.897 139.126 129.308 139.23 128.684 139.23C128.06 139.23 127.471 139.126 126.917 138.918C126.362 138.71 125.883 138.415 125.479 138.034C125.074 137.653 124.751 137.196 124.508 136.665C124.277 136.122 124.162 135.521 124.162 134.863ZM126.241 134.863C126.241 135.186 126.293 135.498 126.397 135.799C126.512 136.099 126.674 136.365 126.882 136.596C127.102 136.827 127.362 137.011 127.662 137.15C127.962 137.289 128.303 137.358 128.684 137.358C129.066 137.358 129.406 137.289 129.707 137.15C130.007 137.011 130.261 136.827 130.469 136.596C130.689 136.365 130.85 136.099 130.954 135.799C131.07 135.498 131.128 135.186 131.128 134.863C131.128 134.539 131.07 134.227 130.954 133.927C130.85 133.627 130.689 133.361 130.469 133.13C130.261 132.899 130.007 132.714 129.707 132.575C129.406 132.437 129.066 132.367 128.684 132.367C128.303 132.367 127.962 132.437 127.662 132.575C127.362 132.714 127.102 132.899 126.882 133.13C126.674 133.361 126.512 133.627 126.397 133.927C126.293 134.227 126.241 134.539 126.241 134.863ZM134.028 130.704H136.28L138.082 136.526H138.117L139.798 130.704H142.051L143.853 136.526H143.887L145.62 130.704H147.717L144.893 139.022H142.83L140.855 133.338H140.82L139.07 139.022H136.921L134.028 130.704ZM150.609 135.591C150.679 136.214 150.921 136.7 151.337 137.046C151.753 137.393 152.255 137.566 152.845 137.566C153.364 137.566 153.798 137.462 154.144 137.254C154.502 137.035 154.814 136.763 155.08 136.44L156.57 137.566C156.085 138.167 155.542 138.594 154.941 138.848C154.341 139.102 153.711 139.23 153.053 139.23C152.429 139.23 151.84 139.126 151.285 138.918C150.73 138.71 150.251 138.415 149.847 138.034C149.442 137.653 149.119 137.196 148.876 136.665C148.645 136.122 148.53 135.521 148.53 134.863C148.53 134.204 148.645 133.609 148.876 133.078C149.119 132.535 149.442 132.073 149.847 131.692C150.251 131.31 150.73 131.016 151.285 130.808C151.84 130.6 152.429 130.496 153.053 130.496C153.63 130.496 154.156 130.6 154.629 130.808C155.115 131.004 155.525 131.293 155.86 131.674C156.206 132.056 156.472 132.529 156.657 133.095C156.853 133.65 156.951 134.291 156.951 135.019V135.591H150.609ZM154.872 134.031C154.86 133.419 154.67 132.939 154.3 132.593C153.93 132.235 153.416 132.056 152.758 132.056C152.134 132.056 151.637 132.235 151.268 132.593C150.91 132.951 150.69 133.43 150.609 134.031H154.872ZM158.896 130.704H160.975V132.021H161.01C161.241 131.536 161.57 131.16 161.998 130.895C162.425 130.629 162.916 130.496 163.471 130.496C163.598 130.496 163.719 130.508 163.835 130.531C163.962 130.554 164.089 130.583 164.216 130.617V132.627C164.043 132.581 163.869 132.547 163.696 132.523C163.534 132.489 163.373 132.471 163.211 132.471C162.726 132.471 162.333 132.564 162.032 132.749C161.744 132.922 161.518 133.124 161.357 133.355C161.206 133.586 161.103 133.817 161.045 134.048C160.999 134.279 160.975 134.453 160.975 134.568V139.022H158.896V130.704Z" fill="#0305DB"/>
</g>
<defs>
<clipPath id="clip0_110_43">
<rect width="200" height="200" fill="white"/>
</clipPath>
</defs>
</svg>
