<svg width="180" height="180" viewBox="0 0 180 180" fill="none" xmlns="http://www.w3.org/2000/svg">
<circle cx="90" cy="90" r="87.5" stroke="#0305DB" stroke-width="5"/>
<path fill-rule="evenodd" clip-rule="evenodd" d="M67.2289 90.5646C69.2331 93.0146 74.3331 102.092 75.4164 106.638H104.583C105.666 102.096 110.76 93.0188 112.764 90.5709C116.189 86.3931 118.345 81.3214 118.977 75.9563C119.6 70.6015 118.668 65.1806 116.291 60.3417C113.893 55.4669 110.163 51.3708 105.533 48.5271C100.863 45.6546 95.4868 44.1349 90.0039 44.1375C84.5102 44.1375 79.1268 45.6584 74.4748 48.5229C69.8441 51.3655 66.1127 55.4609 63.7123 60.3354C61.3345 65.1725 60.4001 70.5919 61.0206 75.9459C61.6435 81.2938 63.7956 86.3626 67.2289 90.5646V90.5646ZM92.0831 60.8042L79.5831 79.5542H87.9164V92.0542L100.416 73.3042H92.0831V60.8042Z" fill="#0305DB"/>
<path d="M75.416 112.887C75.416 112.335 75.6355 111.805 76.0262 111.414C76.4169 111.024 76.9468 110.804 77.4993 110.804H102.499C103.052 110.804 103.582 111.024 103.973 111.414C104.363 111.805 104.583 112.335 104.583 112.887C104.583 113.44 104.363 113.97 103.973 114.361C103.582 114.751 103.052 114.971 102.499 114.971H77.4993C76.9468 114.971 76.4169 114.751 76.0262 114.361C75.6355 113.97 75.416 113.44 75.416 112.887ZM104.583 119.137H75.416V123.304C75.416 124.409 75.855 125.469 76.6364 126.25C77.4178 127.032 78.4776 127.471 79.5827 127.471H100.416C101.521 127.471 102.581 127.032 103.362 126.25C104.144 125.469 104.583 124.409 104.583 123.304V119.137Z" fill="#0305DB"/>
</svg>
