<svg width="200" height="200" viewBox="0 0 200 200" fill="none" xmlns="http://www.w3.org/2000/svg">
<g clip-path="url(#clip0_110_40)">
<path d="M100 197.222C153.694 197.222 197.222 153.694 197.222 99.9999C197.222 46.3056 153.694 2.77771 100 2.77771C46.3057 2.77771 2.77783 46.3056 2.77783 99.9999C2.77783 153.694 46.3057 197.222 100 197.222Z" fill="white" stroke="#FF9900" stroke-width="5.77617"/>
<path d="M127.436 66.4258V39.3501L118.411 30.325L109.386 39.3501V66.4258H127.436ZM64.26 66.4258V84.4766H136.462V66.4258H64.26ZM73.2852 84.4766V102.526H91.3357V84.4766H73.2852ZM91.3357 66.4258V39.3501L82.3105 30.325L73.2852 39.3501V66.4258H91.3357ZM109.386 84.4766V102.526H127.436V84.4766H109.386Z" stroke="#FF9900" stroke-width="3.97651" stroke-linecap="round" stroke-linejoin="round"/>
<path d="M36.7492 123.865H40.8734C41.4626 123.865 42.0287 123.923 42.5716 124.038C43.1261 124.154 43.6113 124.35 44.0272 124.627C44.4431 124.893 44.7723 125.257 45.0149 125.719C45.2691 126.17 45.3962 126.736 45.3962 127.417C45.3962 128.191 45.2633 128.815 44.9976 129.289C44.7319 129.762 44.3738 130.132 43.9232 130.398C43.4727 130.652 42.9471 130.825 42.3463 130.918C41.7572 131.01 41.1391 131.056 40.4922 131.056H38.9326V136.134H36.7492V123.865ZM40.2496 129.185C40.5615 129.185 40.885 129.173 41.22 129.15C41.555 129.127 41.8611 129.058 42.1384 128.942C42.4272 128.827 42.6583 128.653 42.8315 128.422C43.0164 128.191 43.1088 127.868 43.1088 127.452C43.1088 127.071 43.0279 126.77 42.8662 126.551C42.7045 126.32 42.4965 126.147 42.2424 126.031C41.9882 125.904 41.7052 125.823 41.3933 125.788C41.0814 125.754 40.781 125.736 40.4922 125.736H38.9326V129.185H40.2496ZM47.152 127.816H49.2315V129.133H49.2661C49.4972 128.648 49.8264 128.272 50.2538 128.006C50.6813 127.741 51.1722 127.608 51.7268 127.608C51.8538 127.608 51.9751 127.619 52.0907 127.643C52.2177 127.666 52.3448 127.695 52.4719 127.729V129.739C52.2986 129.693 52.1253 129.658 51.952 129.635C51.7903 129.601 51.6286 129.583 51.4668 129.583C50.9816 129.583 50.5889 129.676 50.2885 129.861C49.9997 130.034 49.7744 130.236 49.6127 130.467C49.4625 130.698 49.3585 130.929 49.3008 131.16C49.2546 131.391 49.2315 131.565 49.2315 131.68V136.134H47.152V127.816ZM53.9218 127.816H56.0012V136.134H53.9218V127.816ZM53.6272 124.991C53.6272 124.656 53.7485 124.367 53.9911 124.125C54.2453 123.871 54.563 123.744 54.9442 123.744C55.3254 123.744 55.6431 123.865 55.8972 124.108C56.163 124.339 56.2958 124.633 56.2958 124.991C56.2958 125.349 56.163 125.65 55.8972 125.892C55.6431 126.123 55.3254 126.239 54.9442 126.239C54.563 126.239 54.2453 126.118 53.9911 125.875C53.7485 125.621 53.6272 125.326 53.6272 124.991ZM57.2621 127.816H59.5322L61.7502 133.638H61.7849L64.0203 127.816H66.1517L62.8766 136.134H60.6585L57.2621 127.816ZM72.5728 134.99H72.5208C72.2205 135.464 71.8393 135.81 71.3772 136.03C70.9151 136.238 70.4068 136.341 69.8523 136.341C69.471 136.341 69.0956 136.29 68.7259 136.186C68.3678 136.082 68.0443 135.926 67.7555 135.718C67.4782 135.51 67.253 135.25 67.0797 134.938C66.9064 134.626 66.8198 134.262 66.8198 133.846C66.8198 133.396 66.9006 133.014 67.0624 132.702C67.2241 132.379 67.4378 132.113 67.7035 131.905C67.9808 131.686 68.2985 131.513 68.6566 131.386C69.0147 131.258 69.3844 131.166 69.7656 131.108C70.1584 131.039 70.5512 130.999 70.944 130.987C71.3367 130.964 71.7064 130.952 72.053 130.952H72.5728V130.727C72.5728 130.207 72.3938 129.82 72.0356 129.566C71.6775 129.3 71.2212 129.167 70.6667 129.167C70.2277 129.167 69.8176 129.248 69.4364 129.41C69.0551 129.56 68.7259 129.768 68.4486 130.034L67.3569 128.942C67.819 128.469 68.3562 128.128 68.9685 127.92C69.5923 127.712 70.2335 127.608 70.892 127.608C71.4811 127.608 71.9779 127.677 72.3822 127.816C72.7866 127.943 73.1216 128.11 73.3873 128.318C73.653 128.526 73.8551 128.769 73.9938 129.046C74.144 129.312 74.2479 129.583 74.3057 129.861C74.375 130.138 74.4154 130.409 74.427 130.675C74.4385 130.929 74.4443 131.154 74.4443 131.351V136.134H72.5728V134.99ZM72.4515 132.408H72.0183C71.7295 132.408 71.406 132.419 71.0479 132.443C70.6898 132.466 70.349 132.523 70.0255 132.616C69.7136 132.697 69.4479 132.824 69.2284 132.997C69.0089 133.159 68.8992 133.39 68.8992 133.69C68.8992 133.887 68.9396 134.054 69.0205 134.193C69.1129 134.32 69.2284 134.43 69.3671 134.522C69.5057 134.614 69.6616 134.684 69.8349 134.73C70.0082 134.765 70.1815 134.782 70.3548 134.782C71.071 134.782 71.5967 134.614 71.9317 134.279C72.2782 133.933 72.4515 133.465 72.4515 132.876V132.408ZM82.3653 130.311C82.1227 130.057 81.8686 129.855 81.6029 129.705C81.3372 129.554 81.0657 129.479 80.7884 129.479C80.4072 129.479 80.0664 129.549 79.7661 129.687C79.4657 129.826 79.2058 130.011 78.9863 130.242C78.7783 130.473 78.6166 130.739 78.5011 131.039C78.3971 131.339 78.3451 131.651 78.3451 131.975C78.3451 132.298 78.3971 132.61 78.5011 132.91C78.6166 133.211 78.7783 133.477 78.9863 133.708C79.2058 133.939 79.4657 134.123 79.7661 134.262C80.0664 134.401 80.4072 134.47 80.7884 134.47C81.1119 134.47 81.4123 134.406 81.6895 134.279C81.9668 134.141 82.2036 133.944 82.4 133.69L83.7863 135.18C83.5783 135.388 83.3357 135.567 83.0585 135.718C82.7928 135.868 82.5213 135.989 82.244 136.082C81.9668 136.174 81.7011 136.238 81.4469 136.272C81.1928 136.318 80.9733 136.341 80.7884 136.341C80.1646 136.341 79.5755 136.238 79.0209 136.03C78.4664 135.822 77.987 135.527 77.5827 135.146C77.1783 134.765 76.8549 134.308 76.6123 133.777C76.3812 133.234 76.2657 132.633 76.2657 131.975C76.2657 131.316 76.3812 130.721 76.6123 130.19C76.8549 129.647 77.1783 129.185 77.5827 128.804C77.987 128.422 78.4664 128.128 79.0209 127.92C79.5755 127.712 80.1646 127.608 80.7884 127.608C81.3199 127.608 81.8513 127.712 82.3827 127.92C82.9256 128.116 83.3993 128.434 83.8036 128.873L82.3653 130.311ZM83.9149 127.816H86.2023L88.5243 133.586H88.5589L90.6384 127.816H92.8044L88.8708 137.918C88.7207 138.311 88.5532 138.652 88.3683 138.941C88.195 139.241 87.9871 139.49 87.7445 139.686C87.5019 139.894 87.2131 140.044 86.8781 140.136C86.5546 140.24 86.1618 140.292 85.6997 140.292C85.1568 140.292 84.6254 140.223 84.1055 140.084L84.3654 138.213C84.5272 138.271 84.6947 138.317 84.868 138.352C85.0528 138.398 85.2376 138.421 85.4225 138.421C85.6766 138.421 85.8903 138.398 86.0636 138.352C86.2369 138.305 86.3813 138.23 86.4968 138.126C86.6239 138.034 86.7279 137.907 86.8088 137.745C86.8896 137.595 86.9763 137.41 87.0687 137.191L87.4672 136.203L83.9149 127.816ZM99.3451 123.865H107.264V125.84H101.529V129.064H106.935V131.039H101.529V136.134H99.3451V123.865ZM108.689 131.975C108.689 131.316 108.805 130.721 109.036 130.19C109.278 129.647 109.602 129.185 110.006 128.804C110.41 128.422 110.89 128.128 111.444 127.92C111.999 127.712 112.588 127.608 113.212 127.608C113.836 127.608 114.425 127.712 114.979 127.92C115.534 128.128 116.013 128.422 116.418 128.804C116.822 129.185 117.14 129.647 117.371 130.19C117.613 130.721 117.734 131.316 117.734 131.975C117.734 132.633 117.613 133.234 117.371 133.777C117.14 134.308 116.822 134.765 116.418 135.146C116.013 135.527 115.534 135.822 114.979 136.03C114.425 136.238 113.836 136.341 113.212 136.341C112.588 136.341 111.999 136.238 111.444 136.03C110.89 135.822 110.41 135.527 110.006 135.146C109.602 134.765 109.278 134.308 109.036 133.777C108.805 133.234 108.689 132.633 108.689 131.975ZM110.768 131.975C110.768 132.298 110.82 132.61 110.924 132.91C111.04 133.211 111.202 133.477 111.41 133.708C111.629 133.939 111.889 134.123 112.189 134.262C112.49 134.401 112.831 134.47 113.212 134.47C113.593 134.47 113.934 134.401 114.234 134.262C114.534 134.123 114.789 133.939 114.997 133.708C115.216 133.477 115.378 133.211 115.482 132.91C115.597 132.61 115.655 132.298 115.655 131.975C115.655 131.651 115.597 131.339 115.482 131.039C115.378 130.739 115.216 130.473 114.997 130.242C114.789 130.011 114.534 129.826 114.234 129.687C113.934 129.549 113.593 129.479 113.212 129.479C112.831 129.479 112.49 129.549 112.189 129.687C111.889 129.826 111.629 130.011 111.41 130.242C111.202 130.473 111.04 130.739 110.924 131.039C110.82 131.339 110.768 131.651 110.768 131.975ZM125.365 130.311C125.123 130.057 124.868 129.855 124.603 129.705C124.337 129.554 124.065 129.479 123.788 129.479C123.407 129.479 123.066 129.549 122.766 129.687C122.465 129.826 122.206 130.011 121.986 130.242C121.778 130.473 121.616 130.739 121.501 131.039C121.397 131.339 121.345 131.651 121.345 131.975C121.345 132.298 121.397 132.61 121.501 132.91C121.616 133.211 121.778 133.477 121.986 133.708C122.206 133.939 122.465 134.123 122.766 134.262C123.066 134.401 123.407 134.47 123.788 134.47C124.112 134.47 124.412 134.406 124.689 134.279C124.967 134.141 125.203 133.944 125.4 133.69L126.786 135.18C126.578 135.388 126.336 135.567 126.058 135.718C125.793 135.868 125.521 135.989 125.244 136.082C124.967 136.174 124.701 136.238 124.447 136.272C124.193 136.318 123.973 136.341 123.788 136.341C123.164 136.341 122.575 136.238 122.021 136.03C121.466 135.822 120.987 135.527 120.582 135.146C120.178 134.765 119.855 134.308 119.612 133.777C119.381 133.234 119.265 132.633 119.265 131.975C119.265 131.316 119.381 130.721 119.612 130.19C119.855 129.647 120.178 129.185 120.582 128.804C120.987 128.422 121.466 128.128 122.021 127.92C122.575 127.712 123.164 127.608 123.788 127.608C124.32 127.608 124.851 127.712 125.382 127.92C125.925 128.116 126.399 128.434 126.803 128.873L125.365 130.311ZM135.631 136.134H133.655V134.799H133.621C133.424 135.215 133.124 135.579 132.72 135.891C132.315 136.191 131.767 136.341 131.074 136.341C130.519 136.341 130.045 136.255 129.653 136.082C129.271 135.897 128.959 135.654 128.717 135.354C128.474 135.042 128.301 134.69 128.197 134.297C128.093 133.904 128.041 133.494 128.041 133.066V127.816H130.12V132.027C130.12 132.258 130.132 132.518 130.155 132.806C130.178 133.084 130.236 133.349 130.328 133.604C130.432 133.846 130.583 134.054 130.779 134.227C130.987 134.389 131.276 134.47 131.645 134.47C131.992 134.47 132.281 134.412 132.512 134.297C132.754 134.181 132.951 134.025 133.101 133.829C133.263 133.632 133.378 133.407 133.448 133.153C133.517 132.899 133.551 132.633 133.551 132.356V127.816H135.631V136.134ZM142.427 130.121C142.023 129.554 141.48 129.271 140.799 129.271C140.521 129.271 140.25 129.341 139.984 129.479C139.718 129.618 139.586 129.843 139.586 130.155C139.586 130.409 139.695 130.594 139.915 130.71C140.134 130.825 140.412 130.923 140.747 131.004C141.082 131.085 141.44 131.172 141.821 131.264C142.214 131.345 142.578 131.478 142.913 131.663C143.248 131.836 143.525 132.079 143.744 132.391C143.964 132.702 144.074 133.13 144.074 133.673C144.074 134.17 143.964 134.591 143.744 134.938C143.537 135.273 143.259 135.544 142.913 135.752C142.578 135.96 142.196 136.11 141.769 136.203C141.342 136.295 140.914 136.341 140.487 136.341C139.84 136.341 139.245 136.249 138.702 136.064C138.159 135.879 137.674 135.544 137.246 135.059L138.633 133.76C138.898 134.06 139.181 134.308 139.482 134.505C139.794 134.69 140.169 134.782 140.608 134.782C140.758 134.782 140.914 134.765 141.076 134.73C141.238 134.695 141.388 134.638 141.526 134.557C141.665 134.476 141.775 134.378 141.856 134.262C141.948 134.135 141.994 133.991 141.994 133.829C141.994 133.54 141.885 133.326 141.665 133.188C141.446 133.049 141.168 132.939 140.833 132.858C140.498 132.766 140.134 132.685 139.742 132.616C139.36 132.535 139.002 132.414 138.667 132.252C138.332 132.079 138.055 131.842 137.835 131.541C137.616 131.241 137.506 130.825 137.506 130.294C137.506 129.832 137.599 129.433 137.783 129.098C137.98 128.752 138.234 128.469 138.546 128.249C138.858 128.03 139.216 127.868 139.62 127.764C140.025 127.66 140.435 127.608 140.851 127.608C141.405 127.608 141.954 127.706 142.497 127.902C143.04 128.087 143.479 128.411 143.814 128.873L142.427 130.121ZM147.355 132.702C147.424 133.326 147.667 133.812 148.082 134.158C148.498 134.505 149.001 134.678 149.59 134.678C150.11 134.678 150.543 134.574 150.89 134.366C151.248 134.147 151.56 133.875 151.825 133.552L153.316 134.678C152.83 135.279 152.287 135.706 151.687 135.96C151.086 136.214 150.456 136.341 149.798 136.341C149.174 136.341 148.585 136.238 148.03 136.03C147.476 135.822 146.996 135.527 146.592 135.146C146.188 134.765 145.864 134.308 145.622 133.777C145.391 133.234 145.275 132.633 145.275 131.975C145.275 131.316 145.391 130.721 145.622 130.19C145.864 129.647 146.188 129.185 146.592 128.804C146.996 128.422 147.476 128.128 148.03 127.92C148.585 127.712 149.174 127.608 149.798 127.608C150.376 127.608 150.901 127.712 151.375 127.92C151.86 128.116 152.27 128.405 152.605 128.786C152.952 129.167 153.217 129.641 153.402 130.207C153.599 130.762 153.697 131.403 153.697 132.131V132.702H147.355ZM151.617 131.143C151.606 130.531 151.415 130.051 151.046 129.705C150.676 129.347 150.162 129.167 149.503 129.167C148.88 129.167 148.383 129.347 148.013 129.705C147.655 130.063 147.435 130.542 147.355 131.143H151.617ZM162.226 134.886H162.192C161.891 135.394 161.487 135.764 160.979 135.995C160.47 136.226 159.922 136.341 159.332 136.341C158.685 136.341 158.108 136.232 157.6 136.012C157.103 135.781 156.675 135.469 156.317 135.077C155.959 134.684 155.688 134.222 155.503 133.69C155.318 133.159 155.226 132.587 155.226 131.975C155.226 131.362 155.324 130.791 155.52 130.259C155.717 129.728 155.988 129.266 156.335 128.873C156.693 128.48 157.12 128.174 157.617 127.954C158.114 127.723 158.657 127.608 159.246 127.608C159.639 127.608 159.985 127.648 160.285 127.729C160.586 127.81 160.852 127.914 161.083 128.041C161.314 128.168 161.51 128.307 161.672 128.457C161.833 128.596 161.966 128.734 162.07 128.873H162.122V123.033H164.202V136.134H162.226V134.886ZM157.305 131.975C157.305 132.298 157.357 132.61 157.461 132.91C157.576 133.211 157.738 133.477 157.946 133.708C158.166 133.939 158.426 134.123 158.726 134.262C159.026 134.401 159.367 134.47 159.748 134.47C160.13 134.47 160.47 134.401 160.771 134.262C161.071 134.123 161.325 133.939 161.533 133.708C161.753 133.477 161.914 133.211 162.018 132.91C162.134 132.61 162.192 132.298 162.192 131.975C162.192 131.651 162.134 131.339 162.018 131.039C161.914 130.739 161.753 130.473 161.533 130.242C161.325 130.011 161.071 129.826 160.771 129.687C160.47 129.549 160.13 129.479 159.748 129.479C159.367 129.479 159.026 129.549 158.726 129.687C158.426 129.826 158.166 130.011 157.946 130.242C157.738 130.473 157.576 130.739 157.461 131.039C157.357 131.339 157.305 131.651 157.305 131.975Z" fill="#FAA82E"/>
<path d="M52.3583 143.36H54.7497L57.0544 152.197H57.089L59.8443 143.36H61.993L64.6962 152.197H64.7309L67.1396 143.36H69.3576L65.7879 155.628H63.7085L60.8666 146.288H60.832L57.9901 155.628H55.98L52.3583 143.36ZM69.8232 151.469C69.8232 150.811 69.9387 150.216 70.1698 149.684C70.4124 149.142 70.7358 148.679 71.1402 148.298C71.5445 147.917 72.0239 147.622 72.5784 147.414C73.1329 147.207 73.7221 147.103 74.3459 147.103C74.9698 147.103 75.5589 147.207 76.1134 147.414C76.668 147.622 77.1474 147.917 77.5517 148.298C77.956 148.679 78.2737 149.142 78.5048 149.684C78.7474 150.216 78.8687 150.811 78.8687 151.469C78.8687 152.128 78.7474 152.729 78.5048 153.271C78.2737 153.803 77.956 154.259 77.5517 154.64C77.1474 155.022 76.668 155.316 76.1134 155.524C75.5589 155.732 74.9698 155.836 74.3459 155.836C73.7221 155.836 73.1329 155.732 72.5784 155.524C72.0239 155.316 71.5445 155.022 71.1402 154.64C70.7358 154.259 70.4124 153.803 70.1698 153.271C69.9387 152.729 69.8232 152.128 69.8232 151.469ZM71.9026 151.469C71.9026 151.793 71.9546 152.105 72.0586 152.405C72.1741 152.705 72.3358 152.971 72.5438 153.202C72.7633 153.433 73.0232 153.618 73.3235 153.757C73.6239 153.895 73.9647 153.965 74.3459 153.965C74.7272 153.965 75.068 153.895 75.3683 153.757C75.6687 153.618 75.9228 153.433 76.1308 153.202C76.3503 152.971 76.512 152.705 76.616 152.405C76.7315 152.105 76.7893 151.793 76.7893 151.469C76.7893 151.146 76.7315 150.834 76.616 150.534C76.512 150.233 76.3503 149.968 76.1308 149.736C75.9228 149.505 75.6687 149.321 75.3683 149.182C75.068 149.043 74.7272 148.974 74.3459 148.974C73.9647 148.974 73.6239 149.043 73.3235 149.182C73.0232 149.321 72.7633 149.505 72.5438 149.736C72.3358 149.968 72.1741 150.233 72.0586 150.534C71.9546 150.834 71.9026 151.146 71.9026 151.469ZM80.8156 147.31H82.895V148.627H82.9296C83.1607 148.142 83.4899 147.767 83.9174 147.501C84.3448 147.235 84.8358 147.103 85.3903 147.103C85.5174 147.103 85.6387 147.114 85.7542 147.137C85.8813 147.16 86.0083 147.189 86.1354 147.224V149.234C85.9621 149.188 85.7888 149.153 85.6156 149.13C85.4538 149.095 85.2921 149.078 85.1304 149.078C84.6452 149.078 84.2524 149.17 83.952 149.355C83.6632 149.529 83.4379 149.731 83.2762 149.962C83.126 150.193 83.0221 150.424 82.9643 150.655C82.9181 150.886 82.895 151.059 82.895 151.175V155.628H80.8156V147.31ZM87.5507 142.528H89.6301V150.759L92.8359 147.31H95.5045L91.9348 151.088L95.7297 155.628H92.9745L89.6647 151.383H89.6301V155.628H87.5507V142.528ZM102.176 143.36H107.011C107.819 143.36 108.599 143.487 109.35 143.741C110.101 143.983 110.765 144.359 111.343 144.867C111.92 145.375 112.383 146.017 112.729 146.791C113.076 147.553 113.249 148.454 113.249 149.494C113.249 150.545 113.047 151.458 112.643 152.232C112.25 152.994 111.736 153.63 111.1 154.138C110.476 154.635 109.778 155.01 109.004 155.264C108.241 155.507 107.49 155.628 106.751 155.628H102.176V143.36ZM105.988 153.653C106.67 153.653 107.311 153.578 107.912 153.427C108.524 153.266 109.055 153.023 109.506 152.7C109.957 152.365 110.309 151.937 110.563 151.417C110.829 150.886 110.962 150.245 110.962 149.494C110.962 148.755 110.846 148.119 110.615 147.588C110.384 147.056 110.061 146.629 109.645 146.305C109.24 145.97 108.755 145.728 108.189 145.578C107.635 145.416 107.022 145.335 106.352 145.335H104.359V153.653H105.988ZM116.798 152.197C116.867 152.821 117.11 153.306 117.525 153.653C117.941 153.999 118.444 154.173 119.033 154.173C119.553 154.173 119.986 154.069 120.333 153.861C120.691 153.641 121.003 153.37 121.268 153.046L122.759 154.173C122.274 154.773 121.731 155.201 121.13 155.455C120.529 155.709 119.899 155.836 119.241 155.836C118.617 155.836 118.028 155.732 117.474 155.524C116.919 155.316 116.44 155.022 116.035 154.64C115.631 154.259 115.307 153.803 115.065 153.271C114.834 152.729 114.718 152.128 114.718 151.469C114.718 150.811 114.834 150.216 115.065 149.684C115.307 149.142 115.631 148.679 116.035 148.298C116.44 147.917 116.919 147.622 117.474 147.414C118.028 147.207 118.617 147.103 119.241 147.103C119.819 147.103 120.344 147.207 120.818 147.414C121.303 147.611 121.713 147.9 122.048 148.281C122.395 148.662 122.661 149.136 122.845 149.702C123.042 150.256 123.14 150.897 123.14 151.625V152.197H116.798ZM121.061 150.638C121.049 150.025 120.858 149.546 120.489 149.199C120.119 148.841 119.605 148.662 118.946 148.662C118.323 148.662 117.826 148.841 117.456 149.199C117.098 149.557 116.879 150.037 116.798 150.638H121.061ZM129.521 149.615C129.116 149.049 128.573 148.766 127.892 148.766C127.614 148.766 127.343 148.835 127.077 148.974C126.812 149.113 126.679 149.338 126.679 149.65C126.679 149.904 126.788 150.089 127.008 150.204C127.227 150.32 127.505 150.418 127.84 150.499C128.175 150.58 128.533 150.666 128.914 150.759C129.307 150.84 129.671 150.973 130.006 151.157C130.341 151.331 130.618 151.573 130.838 151.885C131.057 152.197 131.167 152.625 131.167 153.168C131.167 153.664 131.057 154.086 130.838 154.433C130.63 154.768 130.352 155.039 130.006 155.247C129.671 155.455 129.29 155.605 128.862 155.697C128.435 155.79 128.007 155.836 127.58 155.836C126.933 155.836 126.338 155.744 125.795 155.559C125.252 155.374 124.767 155.039 124.339 154.554L125.726 153.254C125.991 153.555 126.274 153.803 126.575 153.999C126.887 154.184 127.262 154.277 127.701 154.277C127.851 154.277 128.007 154.259 128.169 154.225C128.331 154.19 128.481 154.132 128.62 154.051C128.758 153.97 128.868 153.872 128.949 153.757C129.041 153.63 129.087 153.485 129.087 153.323C129.087 153.035 128.978 152.821 128.758 152.682C128.539 152.544 128.261 152.434 127.926 152.353C127.591 152.261 127.227 152.18 126.835 152.11C126.453 152.03 126.095 151.908 125.76 151.747C125.425 151.573 125.148 151.336 124.929 151.036C124.709 150.736 124.599 150.32 124.599 149.788C124.599 149.326 124.692 148.928 124.877 148.593C125.073 148.246 125.327 147.963 125.639 147.744C125.951 147.524 126.309 147.362 126.713 147.258C127.118 147.155 127.528 147.103 127.944 147.103C128.498 147.103 129.047 147.201 129.59 147.397C130.133 147.582 130.572 147.905 130.907 148.368L129.521 149.615ZM132.784 142.528H134.864V150.759L138.069 147.31H140.738L137.168 151.088L140.963 155.628H138.208L134.898 151.383H134.864V155.628H132.784V142.528ZM146.528 149.615C146.123 149.049 145.58 148.766 144.899 148.766C144.621 148.766 144.35 148.835 144.084 148.974C143.819 149.113 143.686 149.338 143.686 149.65C143.686 149.904 143.795 150.089 144.015 150.204C144.234 150.32 144.512 150.418 144.847 150.499C145.182 150.58 145.54 150.666 145.921 150.759C146.314 150.84 146.678 150.973 147.013 151.157C147.348 151.331 147.625 151.573 147.845 151.885C148.064 152.197 148.174 152.625 148.174 153.168C148.174 153.664 148.064 154.086 147.845 154.433C147.637 154.768 147.359 155.039 147.013 155.247C146.678 155.455 146.297 155.605 145.869 155.697C145.442 155.79 145.014 155.836 144.587 155.836C143.94 155.836 143.345 155.744 142.802 155.559C142.259 155.374 141.774 155.039 141.346 154.554L142.733 153.254C142.998 153.555 143.281 153.803 143.582 153.999C143.894 154.184 144.269 154.277 144.708 154.277C144.858 154.277 145.014 154.259 145.176 154.225C145.338 154.19 145.488 154.132 145.627 154.051C145.765 153.97 145.875 153.872 145.956 153.757C146.048 153.63 146.094 153.485 146.094 153.323C146.094 153.035 145.985 152.821 145.765 152.682C145.546 152.544 145.268 152.434 144.933 152.353C144.598 152.261 144.234 152.18 143.842 152.11C143.46 152.03 143.102 151.908 142.767 151.747C142.432 151.573 142.155 151.336 141.936 151.036C141.716 150.736 141.606 150.32 141.606 149.788C141.606 149.326 141.699 148.928 141.884 148.593C142.08 148.246 142.334 147.963 142.646 147.744C142.958 147.524 143.316 147.362 143.72 147.258C144.125 147.155 144.535 147.103 144.951 147.103C145.505 147.103 146.054 147.201 146.597 147.397C147.14 147.582 147.579 147.905 147.914 148.368L146.528 149.615Z" fill="#FAA82E"/>
</g>
<defs>
<clipPath id="clip0_110_40">
<rect width="200" height="200" fill="white"/>
</clipPath>
</defs>
</svg>
