<svg width="180" height="180" viewBox="0 0 180 180" fill="none" xmlns="http://www.w3.org/2000/svg">
<circle cx="90" cy="90" r="87.5" stroke="#FF0083" stroke-width="5"/>
<path d="M76.8534 59.8063C66.3971 71.544 59.2212 88.4074 58.5549 89.9963L40 82.0516L64.6544 57.3972L76.8534 59.8063ZM87.0022 114.394C87.0022 114.394 106.172 106.45 117.192 95.4295C144.871 67.751 140.258 46.1208 138.771 41.2514C133.902 39.7137 112.272 35.1519 84.5932 62.8304C73.573 73.8505 65.6283 93.0205 65.6283 93.0205L87.0022 114.394ZM120.216 103.169C108.479 113.626 91.6153 120.801 90.0264 121.468L97.9711 140.023L122.626 115.368L120.216 103.169ZM75.8796 119.52C75.8796 123.774 74.1368 127.619 71.369 130.386C65.3207 136.435 40 140.023 40 140.023C40 140.023 43.588 114.702 49.6362 108.654C51.7828 106.496 54.5222 105.025 57.5067 104.427C60.4911 103.829 63.5858 104.131 66.398 105.296C69.2101 106.46 71.6129 108.434 73.301 110.967C74.9892 113.499 75.8867 116.476 75.8796 119.52ZM96.3822 73.3892C96.3822 67.751 100.995 63.1379 106.633 63.1379C112.272 63.1379 116.885 67.751 116.885 73.3892C116.885 79.0275 112.272 83.6405 106.633 83.6405C100.995 83.6405 96.3822 79.0275 96.3822 73.3892Z" fill="#FF0083"/>
</svg>
