<svg width="200" height="200" viewBox="0 0 200 200" fill="none" xmlns="http://www.w3.org/2000/svg">
<g clip-path="url(#clip0_110_37)">
<path d="M100.11 197.222C153.805 197.222 197.333 153.694 197.333 99.9999C197.333 46.3056 153.805 2.77771 100.11 2.77771C46.416 2.77771 2.88818 46.3056 2.88818 99.9999C2.88818 153.694 46.416 197.222 100.11 197.222Z" fill="white" stroke="#FF0083" stroke-width="5.77617"/>
<path d="M90.869 47.5136C83.3193 55.9885 78.1381 68.1642 77.657 69.3114L64.26 63.5752L82.061 45.7742L90.869 47.5136ZM98.1966 86.9271C98.1966 86.9271 112.038 81.1913 119.994 73.2343C139.979 53.2498 136.648 37.6324 135.575 34.1166C132.059 33.0063 116.442 29.7126 96.4573 49.697C88.5004 57.6538 82.7642 71.4949 82.7642 71.4949L98.1966 86.9271ZM122.178 78.8224C113.703 86.3726 101.527 91.5531 100.38 92.0347L106.116 105.432L123.918 87.6303L122.178 78.8224ZM90.1658 90.6282C90.1658 93.6996 88.9075 96.4758 86.9091 98.4736C82.5421 102.841 64.26 105.432 64.26 105.432C64.26 105.432 66.8506 87.1495 71.2176 82.7827C72.7674 81.2245 74.7453 80.1625 76.9002 79.7307C79.055 79.2989 81.2895 79.517 83.3199 80.3581C85.3503 81.1986 87.0852 82.6238 88.304 84.4527C89.523 86.2809 90.171 88.4303 90.1658 90.6282ZM104.969 57.3207C104.969 53.2498 108.3 49.9191 112.37 49.9191C116.442 49.9191 119.773 53.2498 119.773 57.3207C119.773 61.3917 116.442 64.7224 112.37 64.7224C108.3 64.7224 104.969 61.3917 104.969 57.3207Z" fill="#FF0083"/>
<path d="M41.6683 126.986H50.9073V129.291H44.2156V133.051H50.5232V135.356H44.2156V141.3H41.6683V126.986ZM59.1197 139.965H59.0591C58.7086 140.518 58.2639 140.922 57.7248 141.178C57.1856 141.421 56.5926 141.542 55.9457 141.542C55.5009 141.542 55.0629 141.482 54.6316 141.36C54.2138 141.239 53.8364 141.057 53.4995 140.814C53.176 140.572 52.9132 140.269 52.711 139.905C52.5089 139.541 52.4078 139.116 52.4078 138.631C52.4078 138.105 52.5021 137.661 52.6908 137.297C52.8795 136.919 53.1288 136.609 53.4388 136.367C53.7623 136.111 54.1329 135.909 54.5507 135.76C54.9686 135.612 55.3998 135.504 55.8446 135.437C56.3029 135.356 56.7611 135.309 57.2193 135.295C57.6776 135.268 58.1089 135.255 58.5132 135.255H59.1197V134.992C59.1197 134.386 58.9108 133.934 58.493 133.638C58.0752 133.328 57.5428 133.173 56.8959 133.173C56.3837 133.173 55.9053 133.267 55.4605 133.456C55.0157 133.631 54.6316 133.873 54.3081 134.183L53.0345 132.91C53.5736 132.357 54.2003 131.96 54.9146 131.717C55.6424 131.474 56.3905 131.353 57.1587 131.353C57.8461 131.353 58.4256 131.434 58.8973 131.596C59.369 131.744 59.7599 131.939 60.0699 132.182C60.3799 132.425 60.6157 132.708 60.7775 133.031C60.9527 133.341 61.074 133.658 61.1414 133.981C61.2222 134.305 61.2694 134.621 61.2829 134.931C61.2964 135.228 61.3031 135.491 61.3031 135.72V141.3H59.1197V139.965ZM58.9782 136.953H58.4728C58.1358 136.953 57.7584 136.967 57.3406 136.994C56.9228 137.021 56.5252 137.088 56.1479 137.196C55.784 137.29 55.474 137.438 55.2179 137.64C54.9618 137.829 54.8338 138.099 54.8338 138.449C54.8338 138.678 54.881 138.874 54.9753 139.035C55.0831 139.184 55.2179 139.312 55.3796 139.42C55.5414 139.527 55.7233 139.608 55.9255 139.662C56.1276 139.703 56.3298 139.723 56.532 139.723C57.3676 139.723 57.9808 139.527 58.3717 139.137C58.776 138.732 58.9782 138.186 58.9782 137.499V136.953ZM69.0887 134.285C68.617 133.624 67.9835 133.294 67.1883 133.294C66.8649 133.294 66.5481 133.375 66.2382 133.537C65.9282 133.698 65.7732 133.961 65.7732 134.325C65.7732 134.621 65.9012 134.837 66.1573 134.972C66.4134 135.107 66.7368 135.221 67.1277 135.316C67.5185 135.41 67.9364 135.511 68.3811 135.619C68.8394 135.713 69.2639 135.868 69.6548 136.084C70.0456 136.286 70.3691 136.569 70.6252 136.933C70.8812 137.297 71.0093 137.795 71.0093 138.429C71.0093 139.008 70.8812 139.5 70.6252 139.905C70.3826 140.296 70.0591 140.612 69.6548 140.855C69.2639 141.098 68.8191 141.273 68.3205 141.381C67.8218 141.488 67.3231 141.542 66.8244 141.542C66.0697 141.542 65.3756 141.434 64.7421 141.219C64.1087 141.003 63.5426 140.612 63.0439 140.046L64.6613 138.53C64.9713 138.88 65.3015 139.17 65.6519 139.399C66.0158 139.615 66.4538 139.723 66.966 139.723C67.1412 139.723 67.3231 139.703 67.5118 139.662C67.7005 139.622 67.8757 139.554 68.0374 139.46C68.1992 139.366 68.3272 139.251 68.4216 139.116C68.5294 138.968 68.5833 138.8 68.5833 138.611C68.5833 138.274 68.4552 138.025 68.1992 137.863C67.9431 137.701 67.6196 137.573 67.2288 137.479C66.8379 137.371 66.4134 137.277 65.9551 137.196C65.5104 137.101 65.0926 136.96 64.7017 136.771C64.3108 136.569 63.9874 136.293 63.7313 135.942C63.4752 135.592 63.3472 135.107 63.3472 134.487C63.3472 133.948 63.455 133.483 63.6706 133.092C63.8998 132.687 64.1963 132.357 64.5602 132.101C64.9241 131.845 65.3419 131.656 65.8136 131.535C66.2853 131.414 66.7638 131.353 67.249 131.353C67.8959 131.353 68.5361 131.468 69.1696 131.697C69.803 131.912 70.3152 132.29 70.706 132.829L69.0887 134.285ZM71.7641 133.658V131.596H73.7655V128.786H76.1915V131.596H78.8601V133.658H76.1915V137.903C76.1915 138.388 76.2791 138.773 76.4543 139.056C76.643 139.339 77.0069 139.48 77.546 139.48C77.7617 139.48 77.9975 139.46 78.2536 139.42C78.5097 139.366 78.7119 139.285 78.8601 139.177V141.219C78.604 141.34 78.2873 141.421 77.9099 141.461C77.546 141.515 77.2226 141.542 76.9395 141.542C76.2926 141.542 75.7602 141.468 75.3424 141.32C74.9381 141.185 74.6146 140.976 74.372 140.693C74.1429 140.397 73.9812 140.033 73.8868 139.601C73.806 139.17 73.7655 138.672 73.7655 138.105V133.658H71.7641ZM86.8976 126.986H89.4449V141.3H86.8976V126.986ZM92.3626 131.596H94.6673V133.152H94.7077C94.9368 132.667 95.2873 132.249 95.759 131.899C96.2307 131.535 96.8709 131.353 97.6796 131.353C98.3265 131.353 98.8723 131.461 99.3171 131.677C99.7754 131.892 100.146 132.175 100.429 132.526C100.712 132.876 100.914 133.28 101.036 133.739C101.157 134.197 101.217 134.675 101.217 135.174V141.3H98.7915V136.387C98.7915 136.117 98.778 135.821 98.751 135.498C98.7241 135.161 98.65 134.851 98.5287 134.568C98.4208 134.271 98.2456 134.028 98.003 133.84C97.7604 133.638 97.4302 133.537 97.0124 133.537C96.6081 133.537 96.2644 133.604 95.9814 133.739C95.7118 133.873 95.4827 134.055 95.294 134.285C95.1188 134.514 94.9908 134.776 94.9099 135.073C94.829 135.369 94.7886 135.679 94.7886 136.003V141.3H92.3626V131.596ZM102.839 133.658V131.596H104.841V128.786H107.267V131.596H109.935V133.658H107.267V137.903C107.267 138.388 107.354 138.773 107.529 139.056C107.718 139.339 108.082 139.48 108.621 139.48C108.837 139.48 109.073 139.46 109.329 139.42C109.585 139.366 109.787 139.285 109.935 139.177V141.219C109.679 141.34 109.362 141.421 108.985 141.461C108.621 141.515 108.298 141.542 108.015 141.542C107.368 141.542 106.835 141.468 106.418 141.32C106.013 141.185 105.69 140.976 105.447 140.693C105.218 140.397 105.056 140.033 104.962 139.601C104.881 139.17 104.841 138.672 104.841 138.105V133.658H102.839ZM113.77 137.297C113.851 138.025 114.134 138.591 114.619 138.995C115.104 139.399 115.69 139.601 116.378 139.601C116.984 139.601 117.49 139.48 117.894 139.238C118.312 138.982 118.676 138.665 118.986 138.287L120.724 139.601C120.158 140.302 119.525 140.801 118.824 141.098C118.123 141.394 117.389 141.542 116.62 141.542C115.893 141.542 115.205 141.421 114.558 141.178C113.911 140.936 113.352 140.592 112.88 140.147C112.409 139.703 112.031 139.17 111.748 138.55C111.479 137.917 111.344 137.216 111.344 136.448C111.344 135.679 111.479 134.985 111.748 134.365C112.031 133.732 112.409 133.193 112.88 132.748C113.352 132.303 113.911 131.96 114.558 131.717C115.205 131.474 115.893 131.353 116.62 131.353C117.294 131.353 117.907 131.474 118.46 131.717C119.026 131.946 119.505 132.283 119.895 132.728C120.3 133.173 120.61 133.725 120.825 134.386C121.054 135.033 121.169 135.781 121.169 136.63V137.297H113.77ZM118.743 135.477C118.73 134.763 118.507 134.204 118.076 133.799C117.645 133.382 117.045 133.173 116.277 133.173C115.549 133.173 114.969 133.382 114.538 133.799C114.12 134.217 113.864 134.776 113.77 135.477H118.743ZM123.438 131.596H125.864V133.132H125.904C126.174 132.566 126.558 132.128 127.056 131.818C127.555 131.508 128.128 131.353 128.775 131.353C128.923 131.353 129.065 131.367 129.199 131.394C129.348 131.421 129.496 131.454 129.644 131.495V133.84C129.442 133.786 129.24 133.745 129.038 133.718C128.849 133.678 128.66 133.658 128.472 133.658C127.906 133.658 127.447 133.766 127.097 133.981C126.76 134.183 126.497 134.419 126.308 134.689C126.133 134.958 126.012 135.228 125.945 135.498C125.891 135.767 125.864 135.969 125.864 136.104V141.3H123.438V131.596ZM131.651 131.596H133.955V133.152H133.996C134.225 132.667 134.575 132.249 135.047 131.899C135.519 131.535 136.159 131.353 136.968 131.353C137.615 131.353 138.16 131.461 138.605 131.677C139.063 131.892 139.434 132.175 139.717 132.526C140 132.876 140.202 133.28 140.324 133.739C140.445 134.197 140.506 134.675 140.506 135.174V141.3H138.08V136.387C138.08 136.117 138.066 135.821 138.039 135.498C138.012 135.161 137.938 134.851 137.817 134.568C137.709 134.271 137.534 134.028 137.291 133.84C137.049 133.638 136.718 133.537 136.301 133.537C135.896 133.537 135.553 133.604 135.269 133.739C135 133.873 134.771 134.055 134.582 134.285C134.407 134.514 134.279 134.776 134.198 135.073C134.117 135.369 134.077 135.679 134.077 136.003V141.3H131.651V131.596ZM145.2 137.297C145.281 138.025 145.564 138.591 146.049 138.995C146.535 139.399 147.121 139.601 147.808 139.601C148.415 139.601 148.92 139.48 149.324 139.238C149.742 138.982 150.106 138.665 150.416 138.287L152.155 139.601C151.589 140.302 150.955 140.801 150.254 141.098C149.554 141.394 148.819 141.542 148.051 141.542C147.323 141.542 146.636 141.421 145.989 141.178C145.342 140.936 144.782 140.592 144.311 140.147C143.839 139.703 143.462 139.17 143.179 138.55C142.909 137.917 142.774 137.216 142.774 136.448C142.774 135.679 142.909 134.985 143.179 134.365C143.462 133.732 143.839 133.193 144.311 132.748C144.782 132.303 145.342 131.96 145.989 131.717C146.636 131.474 147.323 131.353 148.051 131.353C148.725 131.353 149.338 131.474 149.891 131.717C150.457 131.946 150.935 132.283 151.326 132.728C151.73 133.173 152.04 133.725 152.256 134.386C152.485 135.033 152.6 135.781 152.6 136.63V137.297H145.2ZM150.174 135.477C150.16 134.763 149.938 134.204 149.506 133.799C149.075 133.382 148.475 133.173 147.707 133.173C146.979 133.173 146.4 133.382 145.969 133.799C145.551 134.217 145.295 134.776 145.2 135.477H150.174ZM153.736 133.658V131.596H155.738V128.786H158.164V131.596H160.832V133.658H158.164V137.903C158.164 138.388 158.251 138.773 158.426 139.056C158.615 139.339 158.979 139.48 159.518 139.48C159.734 139.48 159.97 139.46 160.226 139.42C160.482 139.366 160.684 139.285 160.832 139.177V141.219C160.576 141.34 160.259 141.421 159.882 141.461C159.518 141.515 159.195 141.542 158.912 141.542C158.265 141.542 157.732 141.468 157.314 141.32C156.91 141.185 156.587 140.976 156.344 140.693C156.115 140.397 155.953 140.033 155.859 139.601C155.778 139.17 155.738 138.672 155.738 138.105V133.658H153.736Z" fill="#FF0083"/>
</g>
<defs>
<clipPath id="clip0_110_37">
<rect width="200" height="200" fill="white"/>
</clipPath>
</defs>
</svg>
