<svg width="120" height="120" viewBox="0 0 120 120" fill="none" xmlns="http://www.w3.org/2000/svg">
<path d="M60 7.5C49.0638 7.5129 38.5792 11.863 30.8461 19.5961C23.1131 27.3292 18.7629 37.8138 18.75 48.75C18.7369 57.6871 21.6562 66.3817 27.06 73.5C27.06 73.5 28.185 74.9812 28.3688 75.195L60 112.5L91.6463 75.1763C91.8113 74.9775 92.94 73.5 92.94 73.5L92.9438 73.4888C98.3449 66.3735 101.263 57.683 101.25 48.75C101.237 37.8138 96.887 27.3292 89.1539 19.5961C81.4209 11.863 70.9363 7.5129 60 7.5ZM60 63.75C57.0333 63.75 54.1332 62.8703 51.6665 61.222C49.1997 59.5738 47.2772 57.2311 46.1418 54.4903C45.0065 51.7494 44.7095 48.7334 45.2883 45.8236C45.867 42.9139 47.2956 40.2412 49.3934 38.1434C51.4912 36.0456 54.164 34.617 57.0737 34.0382C59.9834 33.4594 62.9994 33.7565 65.7403 34.8918C68.4812 36.0271 70.8239 37.9497 72.4721 40.4164C74.1203 42.8832 75 45.7833 75 48.75C74.9951 52.7267 73.4131 56.5392 70.6012 59.3511C67.7892 62.1631 63.9768 63.745 60 63.75Z" fill="white"/>
</svg>
