<svg xmlns="http://www.w3.org/2000/svg" viewBox="0 0 588.31 246.53"><defs><style>.cls-1{fill:#fff;stroke:#fff;stroke-miterlimit:10;stroke-width:0.5px;}</style></defs><g id="Layer_2" data-name="Layer 2"><g id="new_logo" data-name="new logo"><path class="cls-1" d="M548.44,101.25a56.7,56.7,0,0,0,15-23,56.13,56.13,0,0,0,3-20l-21,1a34.81,34.81,0,0,1-8,23c-11.25,13.21-28.31,11.9-30,11.74-21.39-2.52-36.22-21.6-34-40.74,1.9-16.37,17-28.14,35-30l-1-23c-25,0-45.08,16.72-53,38-8.61,23.15-1.44,49.75,18,66a75.23,75.23,0,0,0-27,25c-11.11,17.16-12,36.1-12,43l29-2c.06-2.78.85-24.58,19-38a47.52,47.52,0,0,1,29.06-9c25.43.07,46.34,19,48.94,42,2.94,26-18.09,51.47-47,53,.34,9.33-2.33,18.67-2,28,37,1,68.6-26.79,76-61C593.57,152.33,576.44,123.25,548.44,101.25Z"/><path class="cls-1" d="M445.44,95.25c.39-.53,1.47-2,1-3-.79-1.79-5.48-1.35-8-1L419,92A6,6,0,0,0,414,95.29l-12.1,24-5.5,9.92-5.23-10L380.12,95.79a5.84,5.84,0,0,0-1.68-3.54c-1.91-1.75-4.73-1.28-8-1a72.69,72.69,0,0,1-12,0l-10,1,4.32,9.39c14,28.94,24.87,49.85,27.68,54.61.32.53.87,1.44,3,5,4.11,6.86,4.38,7.39,5,8,1.47,1.44,5.43,3.82,17,0a81.71,81.71,0,0,0,7-10,92,92,0,0,0,7-15,170.71,170.71,0,0,1,17-32C440.11,107,441.62,100.4,445.44,95.25Z"/><path class="cls-1" d="M335.8,91.25H315.59a3.21,3.21,0,0,0-3.21,3.2v73.6a3.21,3.21,0,0,0,3.21,3.2h20.63a3.2,3.2,0,0,0,3.2-3.22L339,94.44A3.2,3.2,0,0,0,335.8,91.25Z"/><path class="cls-1" d="M286.44,162.25c-.25-6,.14-12,0-18-.2-8.95.17-6.22,0-15-.18-9.51-.59-11.36,1-13,3.64-3.74,10.61.83,14-3,1-1.12,1-4.43,1-11,0-8.79-.54-9.55-1-10-3.38-3.37-10.81,1.49-14-2-.82-.9-.91-1.86-1-6-.29-13.17.33-14.51-1-16s-2.89-.79-15-1c-7.8-.13-9.55-.52-11,1s-1.31,5-1,12c.29,6.53.83,8.51-.63,10-2.08,2.12-5,0-7.37,2-.77.66-1.54,1.82-1,13,.31,6.39.66,8,2,9,2.09,1.53,4.09-.35,6,1,2.36,1.66,1.32,5.9,1,15-.15,4.43.13,2.42,0,10s.16,15.33,0,23c-.07,3.31-.13,4.82,1,6,2.25,2.33,5.9-.11,14,0,7,.1,9.95,2,12,0C286.79,167.92,286.6,166,286.44,162.25Z"/><path class="cls-1" d="M135.44,132.25c-1-19-1.47-28.42-6-34-7.47-9.19-19.23-10-20-10s-15.08-.57-22,8c-1.55,1.92-3.4,5.13-6,5-1.92-.1-3.21-2-4-3-5.19-6.66-14.84-8.42-18-9-6.81-1.25-15-.28-20,3-.86.57-3.91,2.73-7,5-1.68,1.24-3.06,2.29-4,3,1.68-4.86.85-7,0-8-2.16-2.6-6.48-.5-19-1-4.66-.19-4.95-.52-6,0-5.17,2.55-2.34,12.68-3,32-.44,13,.67,26,0,39-.07,1.37-.28,5.09,2,7,1,.84,2,.89,8,1,5.06.1,7,.11,10,0,5.69-.21,6.42-.54,7-1,2.34-1.84,2.14-5.59,2-9,0,0-.35-8.74,0-27a114.87,114.87,0,0,1,1-13,11,11,0,0,1,7-10c4.9-1.86,9.61.52,12,3,.77.79,1.79,2.12,3,6a46.34,46.34,0,0,1,2,14c.07,10.1.11,15.15,0,18-.52,13.74-1.44,17,1,19,2,1.58,3.3,0,13,0,7.57,0,10.12.92,12-1,1.64-1.67,1.17-3.85,1-9-.23-7.23.66-4.09,1-19,.1-4.26.15-9.68,0-16a14.7,14.7,0,0,1,2-8,13.29,13.29,0,0,1,5-5c.75-.41,5.39-3,10-1,3.48,1.49,5,4.71,6,7,2,4.28,2,8.06,2,12,0,7.67.38,15.34,0,23-.56,11.33-1.19,14,1,16,1.63,1.47,3,.9,14,1,8.77.08,10.42.47,12-1,2.65-2.46,1.65-6.9,1-13C134.29,145.43,136.31,149,135.44,132.25Z"/><path class="cls-1" d="M122.44,185.25c-9.5,0-12.21-1.15-14,1-1.62,1.95-1.58,5.54,0,7,2,1.81,5.13-.69,7,1,1.4,1.26.33,3.31,0,11-.06,1.39,0,3.26,0,7,.07,6.38.27,7.25,1,8,1.87,1.92,6.09,1.92,8,0,.8-.8,1-1.73,1-9,0-4.09,0-6.14,0-7-.15-6.42-.56-8.81,1-10a7,7,0,0,1,3-1c1.7-.2,2.24.33,3,0,1.69-.74,2.59-4.9,1-7C132.11,184.48,129.81,185.22,122.44,185.25Z"/><path class="cls-1" d="M194.44,197.17c-1.59-2.41-7.76-2.49-12,.08s-6.55,8.07-6,13a14.85,14.85,0,0,0,6,10c.46.23,6.87,3.37,10,1a6.32,6.32,0,0,0,1-1,7.4,7.4,0,0,0,1-6c-3,1.79-6.52,1.58-8.5-.34-2.15-2.08-1.63-5.35-1.5-6.16s.63-4,3.43-5.5a7.06,7.06,0,0,1,7.57,1,9.89,9.89,0,0,0,0-3A8.85,8.85,0,0,0,194.44,197.17Z"/><path class="cls-1" d="M232.44,199.25c-2.72-3.68-12-6-17,1-.07-1.39-.12-4.48,0-7,.29-5.84,1.22-7.55,0-9-1.84-2.2-7-1.85-8,0-.27.51-.14,1,0,2v6c0,4.67.05,9.33,0,14,0,2.67.25,5.35,0,8-.28,3-.78,4.9.38,6,.66.62,1.65.75,3.62,1,1.64.21,2.46.32,3,0,1.27-.74.92-2.89,1-7,.15-7.67,1.53-9.45,2-10s2.08-2.29,4-2c2.09.32,3.93,3.1,4,7a43,43,0,0,1,0,5c-.21,3.87-.78,5,0,6,1.3,1.71,5.25,1.83,7,0,.84-.88.94-1.95,1-5,.05-2.35.08-5.4,0-9C233.79,204.59,234.13,201.53,232.44,199.25Z"/><path class="cls-1" d="M272.44,200.25c-.26-2.85-7.9-6.81-13-4a8.09,8.09,0,0,0-3,3,1.38,1.38,0,0,1-1,0c-.71-.33-.65-1.34-1-2-1.06-2-6.76-2.16-8,0-.28.49-.11.66,0,3v9c0,6.69,0,10.06,1,11,1.77,1.73,5.48,1.52,7,0,.61-.61.93-1.41,1-6,0-.67,0-.68,0-1.87.05-6.64.65-7.66,1-8.13a5.13,5.13,0,0,1,3-2,4.76,4.76,0,0,1,4,1c.57.52,1.69,1.87,1,10-.4,4.72.05,6.68,1,7,3,1,4.81,1.51,7,0,1.64-1.13,1-4,1-7C273.44,210.09,273.44,204.25,272.44,200.25Z"/><path class="cls-1" d="M330,183.61l-2.91-.34a3.17,3.17,0,0,0-3.43,3.28V218a3.2,3.2,0,0,0,3.09,3.3h2.57a3.2,3.2,0,0,0,3.09-3.26l.35-31.06A3.23,3.23,0,0,0,330,183.61Z"/><path class="cls-1" d="M410.44,217.25v-20a4,4,0,0,0-.8-.59,4.26,4.26,0,0,0-1.2-.41,4.46,4.46,0,0,0-3,1,14.73,14.73,0,0,1-3,0,16.91,16.91,0,0,1-4-1c-.74-.24-5.38-1.68-9,0a9.79,9.79,0,0,0-4,4,15.1,15.1,0,0,0-1,15c.41.79,2.75,5.21,7,6a9.34,9.34,0,0,0,3,0,14.26,14.26,0,0,0,7-3,9.66,9.66,0,0,1,0,5,3.77,3.77,0,0,1-1,2c-1.7,1.52-4.89.08-5.05,0l-3.95-2a16.52,16.52,0,0,1-3,0c-1.61-.14-2.29-.44-3,0a2.44,2.44,0,0,0-1,2c0,1.18.89,2,2,3a12.29,12.29,0,0,0,3,2c5.68,2.56,12,1,12,1,2-.48,4.71-1.15,6.79-3.5a8.17,8.17,0,0,0,2.21-4.5,17.17,17.17,0,0,0,0-2C410.41,219.54,410.42,218.15,410.44,217.25Zm-10-8c-1.39,2.46-4.66,5.07-7,4a4.21,4.21,0,0,1-2-3c-.57-3,1.89-6.62,5-7,1.71-.21,4.08.49,4.76,2.22C401.77,206.91,400.93,208.39,400.44,209.25Z"/><path class="cls-1" d="M431.73,196.49c-1-.37-4-.25-5.29-.24-1.84,0-1.84,1.13-2,3v0a188.53,188.53,0,0,0-.17,20.5,1.68,1.68,0,0,0,1.64,1.53l5.53.11a1.23,1.23,0,0,0,1.09-1.24l.91-21.9C433.44,197.15,432.76,196.89,431.73,196.49Z"/><path class="cls-1" d="M500.44,208.25c-1.34-1.29-2.91-1.88-6-3-1.25-.46-2.3-.79-3-1a2.4,2.4,0,0,1,0-2,2.29,2.29,0,0,1,1-1,33.42,33.42,0,0,1,5,1c1.09.31,2.09.65,3,1,.18-.25,2.09-3,1-5-.25-.47-.9-1.35-4-2a22.45,22.45,0,0,0-9,0,6.76,6.76,0,0,0-2,13c1,.3,2,.63,3,1q2.67,1,5,2a2.4,2.4,0,0,1,0,2,2.24,2.24,0,0,1-1,1,11.4,11.4,0,0,1-10-2q-1,3-2,6a20.3,20.3,0,0,0,10,3c2.48.05,5.48.12,8-2a9.51,9.51,0,0,0,3-5,7.2,7.2,0,0,0,0-4A7,7,0,0,0,500.44,208.25Z"/><path class="cls-1" d="M470.39,201a13.81,13.81,0,0,0-24,4,13.69,13.69,0,0,0,1,10c3.62,6.6,12.57,7.83,18,6,.9-.3,4.89-1.65,5-4a3.64,3.64,0,0,0-2-3,4.72,4.72,0,0,0-4,0c-1.62.63-1.74,1.52-3,2-.94.36-2.48.46-5-1a4.15,4.15,0,0,1-2-2c-.34-.78-.69-2.26,0-3s1.81-.28,4,0c3.76.47,3.57-.37,8,0,3.14.26,4.08.76,5,0,1.21-1,1.05-3.05,1-4A9,9,0,0,0,470.39,201Zm-6.95,3.26c-.58,1.8-7.92,1.11-9,1a5.7,5.7,0,0,1,1-2c1.38-1.74,4-2.82,6-2a3.33,3.33,0,0,1,2,2A2,2,0,0,1,463.44,204.25Z"/><path class="cls-1" d="M195.94,88.25c-26.79,0-48.5,18.8-48.5,42s21.71,42,48.5,42,48.5-18.8,48.5-42S222.73,88.25,195.94,88.25Zm0,61a18.5,18.5,0,1,1,18.5-18.5A18.5,18.5,0,0,1,195.94,149.25Z"/><path class="cls-1" d="M298.53,195.25c-7.68,0-13.91,5.95-13.91,13.29s6.23,13.3,13.91,13.3,13.91-6,13.91-13.3S306.22,195.25,298.53,195.25Zm0,19.31a5.88,5.88,0,1,1,5.31-5.86A5.6,5.6,0,0,1,298.53,214.56Z"/><path class="cls-1" d="M358.12,195.45c-7.68,0-13.91,6-13.91,13.3S350.44,222,358.12,222,372,216.09,372,208.75,365.81,195.45,358.12,195.45Zm0,19.31a5.88,5.88,0,1,1,5.31-5.85A5.59,5.59,0,0,1,358.12,214.76Z"/><ellipse class="cls-1" cx="325.94" cy="60.75" rx="16.5" ry="15.5"/><path class="cls-1" d="M431.15,184.76a5,5,0,1,0,1.79,7.1A5.19,5.19,0,0,0,431.15,184.76Z"/><path class="cls-1" d="M163.66,201.53a13.81,13.81,0,0,0-24,4,13.69,13.69,0,0,0,1,10c3.62,6.6,12.57,7.83,18,6,.9-.3,4.89-1.65,5-4a3.64,3.64,0,0,0-2-3,4.72,4.72,0,0,0-4,0c-1.62.63-1.74,1.52-3,2-.94.36-2.48.46-5-1a4.15,4.15,0,0,1-2-2c-.34-.78-.69-2.26,0-3s1.81-.28,4,0c3.76.47,3.57-.37,8,0,3.14.26,4.08.76,5,0,1.21-1,1.05-3.05,1-4A9,9,0,0,0,163.66,201.53Zm-6.95,3.26c-.57,1.79-7.92,1.1-9,1a5.88,5.88,0,0,1,1-2c1.38-1.74,4-2.82,6-2a3.25,3.25,0,0,1,2,2A2,2,0,0,1,156.71,204.79Z"/></g></g></svg>