<svg width="96" height="78" viewBox="0 0 96 78" fill="none" xmlns="http://www.w3.org/2000/svg">
<path d="M96 20.238V63C96 66.9782 94.4196 70.7936 91.6066 73.6066C88.7936 76.4196 84.9782 78 81 78H15C11.0218 78 7.20644 76.4196 4.3934 73.6066C1.58035 70.7936 0 66.9782 0 63V20.238L46.476 47.586C46.9377 47.8583 47.464 48.0019 48 48.0019C48.536 48.0019 49.0623 47.8583 49.524 47.586L96 20.238ZM81 1.85716e-07C84.6909 -0.000580296 88.2524 1.35964 91.0032 3.82044C93.7541 6.28124 95.5011 9.66985 95.91 13.338L48 41.52L0.0900006 13.338C0.49895 9.66985 2.24594 6.28124 4.99677 3.82044C7.7476 1.35964 11.3091 -0.000580296 15 1.85716e-07H81Z" fill="white"/>
</svg>
