<svg width="256" height="256" viewBox="0 0 256 256" fill="none" xmlns="http://www.w3.org/2000/svg">
<path d="M221.9 83.1999C231.143 102.609 234.145 124.405 230.492 145.59C226.839 166.775 216.71 186.308 201.5 201.5C191.857 211.169 180.402 218.841 167.789 224.076C155.177 229.31 141.655 232.005 128 232.005C114.344 232.005 100.823 229.31 88.2105 224.076C75.598 218.841 64.1424 211.169 54.4999 201.5C44.8305 191.857 37.1587 180.402 31.9242 167.789C26.6896 155.177 23.9951 141.656 23.9951 128C23.9951 114.344 26.6896 100.823 31.9242 88.2105C37.1587 75.5981 44.8305 64.1424 54.4999 54.4999C73.0164 35.9677 97.8448 25.1062 124.022 24.0866C150.2 23.0669 175.798 31.9642 195.7 48.9999L218.3 26.2999C219.854 25.0242 221.828 24.3723 223.836 24.4709C225.844 24.5696 227.744 25.4117 229.166 26.8336C230.588 28.2555 231.43 30.1554 231.529 32.1638C231.628 34.1723 230.976 36.1456 229.7 37.6999L167.6 99.6999L133.7 133.7C132.171 135.179 130.127 136.005 128 136.005C125.873 136.005 123.829 135.179 122.3 133.7C120.798 132.183 119.955 130.135 119.955 128C119.955 125.865 120.798 123.817 122.3 122.3L150.1 94.5999C142.565 89.5658 133.551 87.2251 124.519 87.9573C115.487 88.6896 106.967 92.4521 100.341 98.6342C93.7162 104.816 89.3739 113.056 88.0191 122.016C86.6643 130.975 88.3764 140.13 92.8777 147.995C97.379 155.859 104.405 161.973 112.817 165.343C121.229 168.713 130.533 169.142 139.219 166.56C147.905 163.979 155.464 158.539 160.671 151.122C165.877 143.705 168.424 134.746 167.9 125.7C167.846 124.649 168 123.598 168.353 122.607C168.706 121.615 169.251 120.703 169.957 119.923C170.663 119.143 171.516 118.51 172.467 118.059C173.418 117.609 174.449 117.351 175.5 117.3C176.546 117.232 177.595 117.374 178.585 117.715C179.576 118.057 180.489 118.593 181.271 119.291C182.053 119.989 182.688 120.835 183.139 121.781C183.59 122.727 183.849 123.753 183.9 124.8C184.645 137.528 181.024 150.13 173.635 160.522C166.247 170.913 155.534 178.472 143.267 181.949C131 185.426 117.913 184.613 106.171 179.644C94.429 174.675 84.7341 165.847 78.6892 154.621C72.6442 143.395 70.6113 130.442 72.9264 117.903C75.2415 105.365 81.766 93.9922 91.4213 85.6648C101.077 77.3375 113.285 72.5543 126.027 72.1061C138.769 71.6579 151.283 75.5715 161.5 83.1999L184.3 60.3999C167.64 46.5357 146.445 39.3156 124.785 40.1264C103.126 40.9371 82.5303 49.7216 66.9534 64.7926C51.3764 79.8636 41.9168 100.158 40.3915 121.779C38.8662 143.4 45.3828 164.822 58.6895 181.93C71.9963 199.039 91.155 210.628 112.486 214.472C133.817 218.315 155.815 214.142 174.257 202.755C192.699 191.367 206.283 173.567 212.4 152.774C218.517 131.98 216.737 109.66 207.4 90.0999C206.485 88.1771 206.371 85.9696 207.084 83.9629C207.796 81.9563 209.277 80.3149 211.2 79.3999C213.123 78.4849 215.33 78.3713 217.337 79.0839C219.344 79.7965 220.985 81.2771 221.9 83.1999V83.1999Z" fill="#FF7A59"/>
</svg>
