<svg width="120" height="120" viewBox="0 0 120 120" fill="none" xmlns="http://www.w3.org/2000/svg">
<path d="M103.781 26.9766L91.3008 14.5078C90.4204 13.6236 89.374 12.922 88.2216 12.4433C87.0693 11.9647 85.8337 11.7185 84.586 11.7188C82.043 11.7188 79.6524 12.7148 77.8594 14.5078L64.4297 27.9375C63.5454 28.8179 62.8438 29.8643 62.3652 31.0167C61.8866 32.169 61.6403 33.4046 61.6406 34.6523C61.6406 37.1953 62.6367 39.5859 64.4297 41.3789L74.25 51.1992C71.9513 56.2659 68.7554 60.8752 64.8164 64.8047C60.8874 68.7532 56.2785 71.9608 51.2109 74.2734L41.3906 64.4531C40.5103 63.5689 39.4638 62.8673 38.3115 62.3886C37.1591 61.91 35.9236 61.6638 34.6758 61.6641C32.1328 61.6641 29.7422 62.6602 27.9492 64.4531L14.5078 77.8711C13.6225 78.7531 12.9203 79.8015 12.4416 80.9559C11.963 82.1103 11.7173 83.348 11.7188 84.5977C11.7188 87.1406 12.7149 89.5312 14.5078 91.3242L26.9649 103.781C29.8242 106.652 33.7734 108.281 37.8281 108.281C38.6836 108.281 39.5039 108.211 40.3125 108.07C56.1094 105.469 71.7774 97.0664 84.4219 84.4336C97.0547 71.8125 105.445 56.1562 108.082 40.3125C108.879 35.4727 107.273 30.4922 103.781 26.9766Z" fill="white"/>
</svg>
