<svg width="57" height="57" viewBox="0 0 57 57" fill="none" xmlns="http://www.w3.org/2000/svg">
<g clip-path="url(#clip0_4_38)">
<path d="M47.55 29.08H52.32C52.65 29.87 53.42 30.43 54.33 30.43C55.53 30.43 56.51 29.45 56.51 28.25C56.51 27.05 55.53 26.07 54.33 26.07C53.42 26.07 52.65 26.63 52.32 27.42H47.55V20.18H52.32C52.65 20.97 53.42 21.53 54.33 21.53C55.53 21.53 56.51 20.55 56.51 19.35C56.51 18.15 55.53 17.17 54.33 17.17C53.42 17.17 52.65 17.73 52.32 18.52H47.55V9.79C47.55 9.33 47.18 8.96 46.72 8.96H43.16C42.7 8.96 42.33 9.33 42.33 9.79C42.33 10.25 42.7 10.62 43.16 10.62H45.89V19.36V28.25V37.14V45.88H10.62V37.14V28.25V19.36V10.62H39.91C40.37 10.62 40.74 10.25 40.74 9.79C40.74 9.33 40.37 8.96 39.91 8.96H37.98V4.19C38.77 3.86 39.33 3.09 39.33 2.18C39.33 0.98 38.35 0 37.15 0C35.95 0 34.97 0.98 34.97 2.18C34.97 3.09 35.53 3.87 36.32 4.19V8.96H29.08V4.19C29.87 3.86 30.43 3.09 30.43 2.18C30.43 0.98 29.45 0 28.25 0C27.05 0 26.07 0.98 26.07 2.18C26.07 3.09 26.63 3.87 27.42 4.19V8.96H20.18V4.19C20.97 3.86 21.53 3.09 21.53 2.18C21.53 0.98 20.55 0 19.35 0C18.15 0 17.17 0.98 17.17 2.18C17.17 3.09 17.73 3.87 18.52 4.19V8.96H9.79C9.33 8.96 8.96 9.33 8.96 9.79V18.53H4.19C3.86 17.74 3.09 17.18 2.18 17.18C0.98 17.18 0 18.16 0 19.36C0 20.56 0.98 21.54 2.18 21.54C3.09 21.54 3.86 20.98 4.19 20.19H8.96V27.43H4.19C3.86 26.64 3.09 26.08 2.18 26.08C0.98 26.08 0 27.06 0 28.26C0 29.46 0.98 30.44 2.18 30.44C3.09 30.44 3.86 29.88 4.19 29.09H8.96V36.33H4.19C3.86 35.54 3.09 34.98 2.18 34.98C0.98 34.98 0 35.96 0 37.16C0 38.36 0.98 39.34 2.18 39.34C3.09 39.34 3.86 38.78 4.19 37.99H8.96V46.73C8.96 47.19 9.33 47.56 9.79 47.56H18.53V52.33C17.74 52.66 17.18 53.43 17.18 54.34C17.18 55.54 18.16 56.52 19.36 56.52C20.56 56.52 21.54 55.54 21.54 54.34C21.54 53.43 20.98 52.65 20.19 52.33V47.56H27.43V52.33C26.64 52.66 26.08 53.43 26.08 54.34C26.08 55.54 27.06 56.52 28.26 56.52C29.46 56.52 30.44 55.54 30.44 54.34C30.44 53.43 29.88 52.65 29.09 52.33V47.56H36.33V52.33C35.54 52.66 34.98 53.43 34.98 54.34C34.98 55.54 35.96 56.52 37.16 56.52C38.36 56.52 39.34 55.54 39.34 54.34C39.34 53.43 38.78 52.65 37.99 52.33V47.56H46.73C47.19 47.56 47.56 47.19 47.56 46.73V37.99H52.33C52.66 38.78 53.43 39.34 54.34 39.34C55.54 39.34 56.52 38.36 56.52 37.16C56.52 35.96 55.54 34.98 54.34 34.98C53.43 34.98 52.66 35.54 52.33 36.33H47.56L47.55 29.08ZM54.34 27.74C54.63 27.74 54.86 27.97 54.86 28.26C54.86 28.55 54.63 28.78 54.34 28.78C54.05 28.78 53.82 28.55 53.82 28.26C53.82 27.97 54.05 27.74 54.34 27.74ZM54.34 18.84C54.63 18.84 54.86 19.07 54.86 19.36C54.86 19.65 54.63 19.88 54.34 19.88C54.05 19.88 53.82 19.65 53.82 19.36C53.82 19.07 54.05 18.84 54.34 18.84ZM37.15 1.66C37.44 1.66 37.67 1.89 37.67 2.18C37.67 2.47 37.44 2.7 37.15 2.7C36.86 2.7 36.63 2.47 36.63 2.18C36.63 1.89 36.86 1.66 37.15 1.66ZM28.26 1.66C28.55 1.66 28.78 1.89 28.78 2.18C28.78 2.47 28.55 2.7 28.26 2.7C27.97 2.7 27.74 2.47 27.74 2.18C27.74 1.89 27.97 1.66 28.26 1.66ZM19.36 1.66C19.65 1.66 19.88 1.89 19.88 2.18C19.88 2.47 19.65 2.7 19.36 2.7C19.07 2.7 18.84 2.47 18.84 2.18C18.84 1.89 19.07 1.66 19.36 1.66ZM2.18 19.88C1.89 19.88 1.66 19.65 1.66 19.36C1.66 19.07 1.89 18.84 2.18 18.84C2.47 18.84 2.7 19.07 2.7 19.36C2.7 19.65 2.46 19.88 2.18 19.88ZM2.18 28.78C1.89 28.78 1.66 28.55 1.66 28.26C1.66 27.97 1.89 27.74 2.18 27.74C2.47 27.74 2.7 27.97 2.7 28.26C2.7 28.54 2.46 28.78 2.18 28.78ZM2.18 37.67C1.89 37.67 1.66 37.44 1.66 37.15C1.66 36.86 1.89 36.63 2.18 36.63C2.47 36.63 2.7 36.86 2.7 37.15C2.7 37.44 2.46 37.67 2.18 37.67ZM19.36 54.85C19.07 54.85 18.84 54.62 18.84 54.33C18.84 54.04 19.07 53.81 19.36 53.81C19.65 53.81 19.88 54.04 19.88 54.33C19.88 54.62 19.65 54.85 19.36 54.85ZM28.26 54.85C27.97 54.85 27.74 54.62 27.74 54.33C27.74 54.04 27.97 53.81 28.26 53.81C28.55 53.81 28.78 54.04 28.78 54.33C28.78 54.62 28.54 54.85 28.26 54.85ZM37.15 54.85C36.86 54.85 36.63 54.62 36.63 54.33C36.63 54.04 36.86 53.81 37.15 53.81C37.44 53.81 37.67 54.04 37.67 54.33C37.67 54.62 37.44 54.85 37.15 54.85ZM54.34 36.63C54.63 36.63 54.86 36.86 54.86 37.15C54.86 37.44 54.63 37.67 54.34 37.67C54.05 37.67 53.82 37.44 53.82 37.15C53.82 36.86 54.05 36.63 54.34 36.63Z" fill="white"/>
<path d="M43.9899 11.6899H12.5199C12.0599 11.6899 11.6899 12.0599 11.6899 12.5199V35.5099C11.6899 35.9699 12.0599 36.3399 12.5199 36.3399C12.9799 36.3399 13.3499 35.9699 13.3499 35.5099V13.3499H43.1599V43.1599H13.3499V38.7699C13.3499 38.3099 12.9799 37.9399 12.5199 37.9399C12.0599 37.9399 11.6899 38.3099 11.6899 38.7699V43.9899C11.6899 44.4499 12.0599 44.8199 12.5199 44.8199H43.9899C44.4499 44.8199 44.8199 44.4499 44.8199 43.9899V12.5199C44.8199 12.0599 44.4499 11.6899 43.9899 11.6899Z" fill="white"/>
<path d="M33.92 21.7598H22.59C22.13 21.7598 21.76 22.1298 21.76 22.5898V33.9198C21.76 34.3798 22.13 34.7498 22.59 34.7498H26.95C27.41 34.7498 27.78 34.3798 27.78 33.9198C27.78 33.4598 27.41 33.0898 26.95 33.0898H23.41V23.4198H33.08V33.0898H30.21C29.75 33.0898 29.38 33.4598 29.38 33.9198C29.38 34.3798 29.75 34.7498 30.21 34.7498H33.91C34.37 34.7498 34.74 34.3798 34.74 33.9198V22.5898C34.75 22.1298 34.38 21.7598 33.92 21.7598Z" fill="white"/>
<path d="M18.0101 15.8501H16.6801C16.2201 15.8501 15.8501 16.2201 15.8501 16.6801V18.0101C15.8501 18.4701 16.2201 18.8401 16.6801 18.8401H18.0101C18.4701 18.8401 18.8401 18.4701 18.8401 18.0101V16.6801C18.8401 16.2201 18.4701 15.8501 18.0101 15.8501Z" fill="white"/>
<path d="M22.38 15.8501H21.05C20.59 15.8501 20.22 16.2201 20.22 16.6801V18.0101C20.22 18.4701 20.59 18.8401 21.05 18.8401H22.38C22.84 18.8401 23.21 18.4701 23.21 18.0101V16.6801C23.2 16.2201 22.83 15.8501 22.38 15.8501Z" fill="white"/>
<path d="M26.7401 15.8501H25.4101C24.9501 15.8501 24.5801 16.2201 24.5801 16.6801V18.0101C24.5801 18.4701 24.9501 18.8401 25.4101 18.8401H26.7401C27.2001 18.8401 27.5701 18.4701 27.5701 18.0101V16.6801C27.5701 16.2201 27.2001 15.8501 26.7401 15.8501Z" fill="white"/>
<path d="M31.0999 15.8501H29.7699C29.3099 15.8501 28.9399 16.2201 28.9399 16.6801V18.0101C28.9399 18.4701 29.3099 18.8401 29.7699 18.8401H31.0999C31.5599 18.8401 31.9299 18.4701 31.9299 18.0101V16.6801C31.9299 16.2201 31.5599 15.8501 31.0999 15.8501Z" fill="white"/>
<path d="M35.4701 15.8501H34.1401C33.6801 15.8501 33.3101 16.2201 33.3101 16.6801V18.0101C33.3101 18.4701 33.6801 18.8401 34.1401 18.8401H35.4701C35.9301 18.8401 36.3001 18.4701 36.3001 18.0101V16.6801C36.3001 16.2201 35.9201 15.8501 35.4701 15.8501Z" fill="white"/>
<path d="M39.8299 15.8501H38.4999C38.0399 15.8501 37.6699 16.2201 37.6699 16.6801V18.0101C37.6699 18.4701 38.0399 18.8401 38.4999 18.8401H39.8299C40.2899 18.8401 40.6599 18.4701 40.6599 18.0101V16.6801C40.6599 16.2201 40.2899 15.8501 39.8299 15.8501Z" fill="white"/>
<path d="M18.0101 37.6699H16.6801C16.2201 37.6699 15.8501 38.0399 15.8501 38.4999V39.8299C15.8501 40.2899 16.2201 40.6599 16.6801 40.6599H18.0101C18.4701 40.6599 18.8401 40.2899 18.8401 39.8299V38.4999C18.8401 38.0399 18.4701 37.6699 18.0101 37.6699Z" fill="white"/>
<path d="M22.38 37.6699H21.05C20.59 37.6699 20.22 38.0399 20.22 38.4999V39.8299C20.22 40.2899 20.59 40.6599 21.05 40.6599H22.38C22.84 40.6599 23.21 40.2899 23.21 39.8299V38.4999C23.2 38.0399 22.83 37.6699 22.38 37.6699Z" fill="white"/>
<path d="M26.7401 37.6699H25.4101C24.9501 37.6699 24.5801 38.0399 24.5801 38.4999V39.8299C24.5801 40.2899 24.9501 40.6599 25.4101 40.6599H26.7401C27.2001 40.6599 27.5701 40.2899 27.5701 39.8299V38.4999C27.5701 38.0399 27.2001 37.6699 26.7401 37.6699Z" fill="white"/>
<path d="M31.0999 37.6699H29.7699C29.3099 37.6699 28.9399 38.0399 28.9399 38.4999V39.8299C28.9399 40.2899 29.3099 40.6599 29.7699 40.6599H31.0999C31.5599 40.6599 31.9299 40.2899 31.9299 39.8299V38.4999C31.9299 38.0399 31.5599 37.6699 31.0999 37.6699Z" fill="white"/>
<path d="M35.4701 37.6699H34.1401C33.6801 37.6699 33.3101 38.0399 33.3101 38.4999V39.8299C33.3101 40.2899 33.6801 40.6599 34.1401 40.6599H35.4701C35.9301 40.6599 36.3001 40.2899 36.3001 39.8299V38.4999C36.3001 38.0399 35.9201 37.6699 35.4701 37.6699Z" fill="white"/>
<path d="M39.8299 37.6699H38.4999C38.0399 37.6699 37.6699 38.0399 37.6699 38.4999V39.8299C37.6699 40.2899 38.0399 40.6599 38.4999 40.6599H39.8299C40.2899 40.6599 40.6599 40.2899 40.6599 39.8299V38.4999C40.6599 38.0399 40.2899 37.6699 39.8299 37.6699Z" fill="white"/>
<path d="M18.0101 20.2202H16.6801C16.2201 20.2202 15.8501 20.5902 15.8501 21.0502V22.3802C15.8501 22.8402 16.2201 23.2102 16.6801 23.2102H18.0101C18.4701 23.2102 18.8401 22.8402 18.8401 22.3802V21.0502C18.8401 20.5902 18.4701 20.2202 18.0101 20.2202Z" fill="white"/>
<path d="M18.0101 24.5801H16.6801C16.2201 24.5801 15.8501 24.9501 15.8501 25.4101V26.7401C15.8501 27.2001 16.2201 27.5701 16.6801 27.5701H18.0101C18.4701 27.5701 18.8401 27.2001 18.8401 26.7401V25.4101C18.8401 24.9501 18.4701 24.5801 18.0101 24.5801Z" fill="white"/>
<path d="M18.0101 28.9399H16.6801C16.2201 28.9399 15.8501 29.3099 15.8501 29.7699V31.0999C15.8501 31.5599 16.2201 31.9299 16.6801 31.9299H18.0101C18.4701 31.9299 18.8401 31.5599 18.8401 31.0999V29.7699C18.8401 29.3099 18.4701 28.9399 18.0101 28.9399Z" fill="white"/>
<path d="M18.0101 33.3101H16.6801C16.2201 33.3101 15.8501 33.6801 15.8501 34.1401V35.4701C15.8501 35.9301 16.2201 36.3001 16.6801 36.3001H18.0101C18.4701 36.3001 18.8401 35.9301 18.8401 35.4701V34.1401C18.8401 33.6801 18.4701 33.3101 18.0101 33.3101Z" fill="white"/>
<path d="M39.8299 20.2202H38.4999C38.0399 20.2202 37.6699 20.5902 37.6699 21.0502V22.3802C37.6699 22.8402 38.0399 23.2102 38.4999 23.2102H39.8299C40.2899 23.2102 40.6599 22.8402 40.6599 22.3802V21.0502C40.6599 20.5902 40.2899 20.2202 39.8299 20.2202Z" fill="white"/>
<path d="M39.8299 24.5801H38.4999C38.0399 24.5801 37.6699 24.9501 37.6699 25.4101V26.7401C37.6699 27.2001 38.0399 27.5701 38.4999 27.5701H39.8299C40.2899 27.5701 40.6599 27.2001 40.6599 26.7401V25.4101C40.6599 24.9501 40.2899 24.5801 39.8299 24.5801Z" fill="white"/>
<path d="M39.8299 28.9399H38.4999C38.0399 28.9399 37.6699 29.3099 37.6699 29.7699V31.0999C37.6699 31.5599 38.0399 31.9299 38.4999 31.9299H39.8299C40.2899 31.9299 40.6599 31.5599 40.6599 31.0999V29.7699C40.6599 29.3099 40.2899 28.9399 39.8299 28.9399Z" fill="white"/>
<path d="M39.8299 33.3101H38.4999C38.0399 33.3101 37.6699 33.6801 37.6699 34.1401V35.4701C37.6699 35.9301 38.0399 36.3001 38.4999 36.3001H39.8299C40.2899 36.3001 40.6599 35.9301 40.6599 35.4701V34.1401C40.6599 33.6801 40.2899 33.3101 39.8299 33.3101Z" fill="white"/>
</g>
<defs>
<clipPath id="clip0_4_38">
<rect width="56.51" height="56.51" fill="white"/>
</clipPath>
</defs>
</svg>
