<svg width="521" height="432" viewBox="0 0 521 432" fill="none" xmlns="http://www.w3.org/2000/svg">
<path d="M164.869 39.5798C162.753 39.5798 161.06 41.2726 161.06 43.3886C161.06 45.5045 162.753 47.1973 164.869 47.1973C166.985 47.1973 168.678 45.5045 168.678 43.3886C168.678 41.3079 166.949 39.5798 164.869 39.5798Z" fill="white"/>
<path d="M30.5407 39.5796C28.4247 39.5796 26.7319 41.2724 26.7319 43.3883C26.7319 45.5043 28.4247 47.197 30.5407 47.197C32.6566 47.197 34.3494 45.5043 34.3494 43.3883C34.3494 41.3076 32.6214 39.5796 30.5407 39.5796Z" fill="white"/>
<path d="M191.566 85.39H187.016C185.606 74.387 182.15 63.913 176.719 54.2148C175.696 52.381 173.368 51.7109 171.535 52.7337C169.701 53.7564 169.031 56.0839 170.053 57.9178C174.814 66.4874 177.918 75.7271 179.293 85.39H176.295C174.179 85.39 172.487 87.0827 172.487 89.1987V104.469C172.487 106.585 174.179 108.278 176.295 108.278H191.566C193.682 108.278 195.374 106.585 195.374 104.469V89.1987C195.374 87.0827 193.682 85.39 191.566 85.39ZM187.757 100.625H180.139V93.0074H183.596H187.757V100.625V100.625Z" fill="white"/>
<path d="M139.652 113.074C139.652 113.004 139.652 112.968 139.652 112.898C139.652 112.827 139.617 112.722 139.617 112.651C139.617 112.616 139.617 112.545 139.582 112.51C139.582 112.404 139.547 112.334 139.511 112.228C139.511 112.193 139.511 112.157 139.476 112.122C139.441 112.016 139.405 111.91 139.37 111.769V111.734C139.335 111.593 139.264 111.487 139.194 111.346L101.036 41.5196C100.366 40.2853 99.0964 39.5447 97.6858 39.5447C96.2751 39.5447 95.0056 40.3205 94.3355 41.5196L56.1777 111.346C56.1072 111.452 56.0366 111.593 56.0014 111.734V111.769C55.9661 111.875 55.9308 111.981 55.8956 112.122C55.8956 112.157 55.8956 112.193 55.8603 112.228C55.825 112.334 55.825 112.404 55.7898 112.51C55.7898 112.545 55.7898 112.616 55.7545 112.651C55.7545 112.722 55.7192 112.827 55.7192 112.898C55.7192 112.968 55.7192 113.004 55.7192 113.074C55.7192 113.11 55.7192 113.18 55.7192 113.215C55.7192 113.251 55.7192 113.251 55.7192 113.286C55.7192 113.356 55.7192 113.392 55.7192 113.462C55.7192 113.533 55.7192 113.603 55.7545 113.674C55.7545 113.709 55.7545 113.78 55.7898 113.815C55.7898 113.885 55.825 113.991 55.825 114.062C55.825 114.097 55.8603 114.168 55.8603 114.203C55.8956 114.273 55.8956 114.379 55.9308 114.45C55.9308 114.485 55.9308 114.485 55.9661 114.52L69.7198 150.985C68.6266 151.549 67.6039 152.255 66.687 153.172C64.5357 155.323 63.3367 158.215 63.3367 161.283C63.3367 166.255 66.5106 170.487 70.9542 172.074V192.952C70.9542 195.068 72.6469 196.76 74.7629 196.76H120.573C122.689 196.76 124.382 195.068 124.382 192.952V172.11C125.969 171.545 127.415 170.628 128.649 169.394C130.801 167.243 132 164.351 132 161.283C132 156.804 129.39 152.89 125.616 151.02L139.37 114.555C139.37 114.52 139.37 114.52 139.405 114.485C139.441 114.414 139.476 114.309 139.476 114.238C139.476 114.203 139.511 114.132 139.511 114.097C139.547 114.026 139.547 113.921 139.547 113.85C139.547 113.815 139.547 113.744 139.582 113.709C139.582 113.639 139.582 113.568 139.617 113.497C139.617 113.427 139.617 113.392 139.617 113.321C139.617 113.286 139.617 113.286 139.617 113.251C139.688 113.18 139.652 113.145 139.652 113.074ZM97.6858 109.407C99.8017 109.407 101.495 111.135 101.495 113.215C101.495 115.296 99.7665 117.024 97.6858 117.024C95.5698 117.024 93.877 115.296 93.877 113.215C93.877 111.135 95.6051 109.407 97.6858 109.407ZM116.765 189.178H78.6069V172.78H116.765V189.178ZM123.289 164.034C122.584 164.739 121.596 165.162 120.609 165.162H74.7981C72.6822 165.162 70.9894 163.434 70.9894 161.353C70.9894 160.331 71.3773 159.379 72.1179 158.673C72.8232 157.968 73.8107 157.545 74.7981 157.545H120.573C120.573 157.545 120.573 157.545 120.609 157.545C122.725 157.545 124.417 159.273 124.417 161.353C124.417 162.341 123.994 163.293 123.289 164.034ZM117.964 149.857H77.4431L65.0647 117.024H74.7981C76.9141 117.024 78.6069 115.331 78.6069 113.215C78.6069 111.099 76.9141 109.407 74.7981 109.407H65.9816L93.877 58.3414V102.459C89.4335 104.046 86.2596 108.278 86.2596 113.251C86.2596 119.563 91.4084 124.712 97.721 124.712C104.034 124.712 109.182 119.563 109.182 113.251C109.182 108.278 106.009 104.046 101.565 102.459V58.3414L129.46 109.407H120.644C118.528 109.407 116.835 111.099 116.835 113.215C116.835 115.331 118.528 117.024 120.644 117.024H130.377L117.964 149.857Z" fill="white"/>
<path d="M23.8403 52.7337C22.0065 51.7109 19.6789 52.381 18.6562 54.2148C13.2605 63.913 9.80443 74.387 8.35853 85.39H3.80922C1.69326 85.39 0.000488281 87.0827 0.000488281 89.1987V104.469C0.000488281 106.585 1.69326 108.278 3.80922 108.278H19.0794C21.1954 108.278 22.8881 106.585 22.8881 104.469V89.1987C22.8881 87.0827 21.1954 85.39 19.0794 85.39H16.0818C17.4572 75.7271 20.5606 66.4874 25.3215 57.9178C26.3442 56.0839 25.7094 53.7564 23.8403 52.7337ZM15.2707 100.625H7.61794V93.0074H11.7793H15.2354V100.625H15.2707Z" fill="white"/>
<path d="M183.948 1.42212C178.975 1.42212 174.743 4.59606 173.157 9.03957H109.149V5.23085C109.149 3.11489 107.456 1.42212 105.34 1.42212H90.0698C87.9539 1.42212 86.2611 3.11489 86.2611 5.23085V9.03957H22.2533C20.6664 4.59606 16.4344 1.42212 11.4619 1.42212C5.14932 1.42212 0.000488281 6.57095 0.000488281 12.8836C0.000488281 19.1962 5.14932 24.345 11.4619 24.345C16.4344 24.345 20.6664 21.1711 22.2533 16.7276H60.6227C52.4763 20.1484 45.0352 24.5566 38.8636 29.7407C37.2414 31.1161 37.0298 33.5142 38.4052 35.1011C39.1457 35.9828 40.239 36.4413 41.3322 36.4413C42.2139 36.4413 43.0603 36.1591 43.8009 35.5596C54.7333 26.3199 70.3914 19.7252 86.2611 17.5387V20.5363C86.2611 22.6522 87.9539 24.345 90.0698 24.345H105.34C107.456 24.345 109.149 22.6522 109.149 20.5363V17.5034C125.054 19.7252 140.677 26.3199 151.609 35.5243C152.314 36.1239 153.196 36.406 154.078 36.406C155.171 36.406 156.229 35.9475 157.005 35.0659C158.38 33.4436 158.168 31.0456 156.546 29.7054C150.41 24.5213 142.934 20.1131 134.787 16.6923H173.157C174.743 21.1358 178.975 24.3098 183.948 24.3098C190.261 24.3098 195.409 19.1609 195.409 12.8483C195.409 6.53569 190.261 1.42212 183.948 1.42212ZM11.4619 16.6923C9.34598 16.6923 7.65321 14.9643 7.65321 12.8836C7.65321 10.8029 9.38124 9.07484 11.4619 9.07484C13.5426 9.07484 15.2707 10.8029 15.2707 12.8836C15.2707 14.9643 13.5426 16.6923 11.4619 16.6923ZM101.496 12.8836V13.2362V16.6923H93.8786V13.201V12.8483V9.03957H101.496V12.8836ZM183.948 16.6923C181.832 16.6923 180.139 14.9643 180.139 12.8836C180.139 10.8029 181.867 9.07484 183.948 9.07484C186.064 9.07484 187.757 10.8029 187.757 12.8836C187.757 14.9643 186.029 16.6923 183.948 16.6923Z" fill="white"/>
<g clip-path="url(#clip0_10_482)">
<path d="M430.376 196.749H406.324C403.679 196.714 401.387 194.88 400.823 192.271L398.213 179.257C390.172 177.247 382.485 174.073 375.396 169.771L364.358 177.106C362.136 178.587 359.209 178.305 357.305 176.436L340.306 159.403C338.402 157.498 338.155 154.501 339.672 152.279L346.972 141.311C342.669 134.223 339.495 126.535 337.52 118.494L324.507 115.884C321.898 115.355 320.028 113.063 319.993 110.383V86.3315C320.028 83.6866 321.862 81.3943 324.472 80.83L337.485 78.2203C339.46 70.1797 342.669 62.4917 346.936 55.4032L339.601 44.4003C338.12 42.1785 338.402 39.2514 340.271 37.3471L357.305 20.3136C359.209 18.4092 362.207 18.1271 364.428 19.6435L375.396 26.9789C382.485 22.6764 390.172 19.5025 398.248 17.4923L400.858 4.51441C401.422 1.90473 403.715 0.0356322 406.36 0.000366211H430.411C433.056 0.0356322 435.348 1.86946 435.912 4.47915L438.522 17.4923C446.563 19.5025 454.286 22.6764 461.375 26.9789L472.342 19.6435C474.564 18.1624 477.491 18.4445 479.395 20.3136L496.429 37.3471C498.333 39.2514 498.615 42.249 497.099 44.4708L489.799 55.4738C494.066 62.5622 497.275 70.2502 499.285 78.2909L512.228 80.9006C514.838 81.4296 516.707 83.7218 516.742 86.4021V110.453C516.707 113.098 514.873 115.391 512.263 115.955L499.25 118.565C497.24 126.605 494.066 134.293 489.764 141.382L497.099 152.42C498.58 154.642 498.298 157.569 496.429 159.473L479.395 176.507C477.491 178.411 474.493 178.693 472.272 177.177L461.304 169.841C454.216 174.144 446.492 177.353 438.452 179.328L435.877 192.306C435.348 194.845 433.056 196.714 430.376 196.749ZM375.361 163.635C375.89 163.635 376.419 163.776 376.842 164.058C384.318 168.819 392.606 172.239 401.246 174.214C402.339 174.461 403.15 175.308 403.397 176.401L406.324 191.107H430.34L433.303 176.401C433.514 175.308 434.361 174.461 435.454 174.214C444.129 172.275 452.382 168.854 459.858 164.058C460.81 163.494 462.009 163.494 462.962 164.093L475.446 172.451L492.444 155.453L484.262 143.145C484.156 143.004 484.051 142.863 483.98 142.722C483.486 141.84 483.522 140.747 484.051 139.865C488.811 132.389 492.232 124.101 494.207 115.461C494.454 114.368 495.3 113.557 496.394 113.31L511.135 110.348V86.2963L496.429 83.3339C495.336 83.1223 494.489 82.2759 494.242 81.1827C492.303 72.5073 488.847 64.255 484.086 56.7786C483.522 55.897 483.522 54.8037 484.015 53.9221C484.121 53.7457 484.227 53.5694 484.368 53.4283L492.479 41.2263L475.481 24.2281L462.997 32.5861C462.045 33.1857 460.846 33.2209 459.893 32.6214C452.417 27.8605 444.165 24.4397 435.489 22.4648C434.396 22.2179 433.585 21.3716 433.338 20.2783L430.376 5.60766H406.324L403.362 20.3136C403.15 21.4068 402.304 22.2532 401.211 22.5001C392.535 24.4397 384.283 27.8958 376.807 32.6567C375.855 33.2562 374.655 33.2209 373.739 32.6214L361.254 24.2986L344.256 41.2616L352.614 53.7457C353.214 54.6627 353.249 55.8617 352.649 56.8139C347.889 64.2903 344.468 72.5425 342.528 81.218C342.281 82.3817 341.329 83.2281 340.165 83.4044L325.6 86.3315V110.383L340.271 113.31C341.4 113.522 342.281 114.368 342.528 115.461C344.468 124.137 347.889 132.389 352.649 139.865C353.249 140.817 353.214 142.017 352.614 142.933L344.327 155.453L361.29 172.451L373.597 164.234C374.091 163.846 374.691 163.635 375.361 163.635Z" fill="white"/>
<path d="M434.572 112.781C433.021 112.781 431.751 111.511 431.751 109.96C431.751 109.149 432.104 108.373 432.738 107.808L443.847 98.3571L432.738 88.9058C431.539 87.8831 431.434 86.1198 432.421 84.956C433.444 83.757 435.207 83.6512 436.371 84.6386L450.019 96.2412C451.218 97.2639 451.359 99.0272 450.336 100.191C450.23 100.297 450.125 100.403 450.019 100.508L436.371 112.111C435.912 112.534 435.242 112.781 434.572 112.781Z" fill="white"/>
<path d="M402.128 112.781C401.457 112.781 400.823 112.534 400.294 112.111L386.646 100.508C385.447 99.4854 385.306 97.7221 386.328 96.5583C386.434 96.4525 386.54 96.3467 386.646 96.2409L400.329 84.6384C401.528 83.6157 403.291 83.7567 404.279 84.9558C405.266 86.1548 405.16 87.9181 403.961 88.9056L392.817 98.3569L403.926 107.808C405.09 108.831 405.266 110.594 404.243 111.758C403.75 112.428 402.974 112.781 402.128 112.781Z" fill="white"/>
<path d="M408.899 126.711C408.582 126.711 408.229 126.641 407.912 126.535C406.466 126.006 405.725 124.384 406.254 122.938L425.192 71.8725C425.721 70.4266 427.343 69.686 428.825 70.215C430.27 70.744 431.011 72.3662 430.482 73.8474L411.544 124.913C411.121 125.971 410.063 126.711 408.899 126.711Z" fill="white"/>
<path d="M417.963 159.65C384.248 159.65 356.847 132.248 356.847 98.5339C356.847 64.8197 384.248 37.418 417.963 37.418C451.677 37.418 479.079 64.8197 479.079 98.5339C479.079 132.248 451.677 159.65 417.963 159.65ZM417.963 42.8842C387.281 42.8842 362.313 67.8525 362.313 98.5339C362.313 129.215 387.281 154.184 417.963 154.184C448.644 154.184 473.612 129.215 473.612 98.5339C473.612 67.8525 448.644 42.8842 417.963 42.8842Z" fill="white"/>
</g>
<g clip-path="url(#clip1_10_482)">
<path d="M476.587 336.993V323.346C476.587 318.197 473.272 313.788 468.652 312.131L468.758 267.766C468.758 266.708 468.335 265.686 467.594 264.945L432.681 230.138C431.94 229.397 430.918 228.974 429.86 228.974H352.839C346.279 228.974 340.954 234.299 340.954 240.858V244.843H336.969C330.409 244.843 325.084 250.169 325.084 256.728V296.261C320.464 297.919 317.149 302.327 317.149 307.511V410.594C317.149 417.153 322.475 422.478 329.034 422.478H444.072C452.042 428.438 461.916 432 472.602 432C498.84 432 520.176 410.664 520.176 384.426C520.176 359.528 500.956 339.039 476.587 336.993ZM433.845 242.481L455.216 263.781H437.054C435.291 263.781 433.845 262.335 433.845 260.572V242.481ZM336.969 252.778H340.919V295.591H333.019V256.728C333.019 254.542 334.782 252.778 336.969 252.778ZM325.084 410.594V307.511C325.084 305.325 326.848 303.561 329.034 303.561H368.673C370.86 303.561 372.623 305.325 372.623 307.511V315.446C372.623 317.632 374.386 319.396 376.573 319.396H419.139C421.325 319.396 423.088 317.632 423.088 315.446C423.088 313.259 421.325 311.496 419.139 311.496H380.593V307.546C380.593 306.136 380.346 304.76 379.888 303.491H437.019C439.205 303.491 440.968 301.728 440.968 299.541C440.968 297.355 439.205 295.591 437.019 295.591H368.708C368.426 295.591 368.179 295.626 367.932 295.662H348.889V240.858C348.889 238.672 350.652 236.909 352.839 236.909H425.91V260.607C425.91 266.744 430.918 271.751 437.054 271.751H460.823L460.717 311.496H454.863C452.677 311.496 450.913 313.259 450.913 315.446C450.913 317.632 452.677 319.396 454.863 319.396H464.667C466.854 319.396 468.617 321.159 468.617 323.346V336.993C444.213 339.004 424.993 359.493 424.993 384.426C424.993 395.852 429.048 406.362 435.784 414.579H329.034C326.848 414.579 325.084 412.78 325.084 410.594ZM472.602 424.101C450.737 424.101 432.963 406.326 432.963 384.462C432.963 362.597 450.737 344.823 472.602 344.823C494.467 344.823 512.241 362.597 512.241 384.462C512.241 406.326 494.467 424.101 472.602 424.101Z" fill="white"/>
<path d="M360.774 255.846H410.04C412.227 255.846 413.99 254.083 413.99 251.896C413.99 249.71 412.227 247.946 410.04 247.946H360.774C358.587 247.946 356.824 249.71 356.824 251.896C356.824 254.083 358.587 255.846 360.774 255.846Z" fill="white"/>
<path d="M360.774 271.716H410.04C412.227 271.716 413.99 269.952 413.99 267.766C413.99 265.579 412.227 263.816 410.04 263.816H360.774C358.587 263.816 356.824 265.579 356.824 267.766C356.824 269.952 358.587 271.716 360.774 271.716Z" fill="white"/>
<path d="M437.019 279.651H360.774C358.587 279.651 356.824 281.415 356.824 283.601C356.824 285.788 358.587 287.551 360.774 287.551H437.019C439.205 287.551 440.968 285.788 440.968 283.601C440.968 281.415 439.24 279.651 437.019 279.651Z" fill="white"/>
<path d="M487.415 362.843C484.241 362.843 481.243 364.078 478.986 366.335L468.054 377.267L466.184 375.398C463.927 373.141 460.965 371.907 457.756 371.907C454.582 371.907 451.584 373.141 449.327 375.398C447.07 377.655 445.836 380.617 445.836 383.827C445.836 387.001 447.07 389.998 449.327 392.255L459.59 402.518C461.847 404.775 464.809 406.009 468.018 406.009C471.192 406.009 474.19 404.775 476.447 402.518L495.808 383.157C498.065 380.9 499.299 377.937 499.299 374.728C499.299 371.519 498.065 368.556 495.808 366.299C493.586 364.078 490.588 362.843 487.415 362.843ZM490.236 377.549L470.875 396.91C470.134 397.651 469.147 398.074 468.089 398.074C467.031 398.074 466.043 397.651 465.303 396.91L455.04 386.648C453.489 385.096 453.489 382.592 455.04 381.041C455.781 380.3 456.768 379.877 457.826 379.877C458.884 379.877 459.872 380.3 460.612 381.041L465.267 385.696C466.819 387.247 469.323 387.247 470.875 385.696L484.629 371.942C485.369 371.201 486.357 370.778 487.415 370.778C488.473 370.778 489.46 371.201 490.236 371.942C490.976 372.683 491.4 373.67 491.4 374.728C491.4 375.821 490.976 376.809 490.236 377.549Z" fill="white"/>
<path d="M376.643 398.708C374.457 398.708 372.693 400.472 372.693 402.658C372.693 404.845 374.457 406.608 376.643 406.608C378.83 406.608 380.593 404.845 380.593 402.658C380.593 400.472 378.83 398.708 376.643 398.708Z" fill="white"/>
<path d="M358.798 398.708H336.969C334.782 398.708 333.019 400.472 333.019 402.658C333.019 404.845 334.782 406.608 336.969 406.608H358.763C360.95 406.608 362.713 404.845 362.713 402.658C362.713 400.472 360.985 398.708 358.798 398.708Z" fill="white"/>
<path d="M437.018 319.395C439.205 319.395 440.968 317.632 440.968 315.446C440.968 313.259 439.205 311.496 437.018 311.496C434.832 311.496 433.068 313.259 433.068 315.446C433.068 317.632 434.832 319.395 437.018 319.395Z" fill="white"/>
</g>
<g clip-path="url(#clip2_10_482)">
<path d="M191.847 252.602C190.542 252.284 189.202 252.708 188.25 253.624L172.345 269.67H164.692L156.299 260.96V253.237L171.992 237.296C172.909 236.344 173.297 235.004 172.98 233.699C172.662 232.43 171.71 231.372 170.476 230.948C166.526 229.644 162.4 228.974 158.203 228.974C145.684 228.974 134.328 234.792 127.028 244.984C120.187 254.506 118.071 266.179 121.103 277.323L92.8201 305.607L45.7047 258.385V249.11C45.7047 247.77 44.9994 246.501 43.8356 245.831L16.6808 229.538C15.1644 228.621 13.2247 228.868 11.9904 230.102L1.12851 240.964C-0.105798 242.198 -0.35266 244.138 0.564256 245.654L16.8571 272.809C17.5625 273.973 18.7968 274.678 20.1369 274.678H29.4118L76.5272 321.899L48.3497 350.077C37.1704 347.044 25.4973 349.16 15.9755 356.002C5.81889 363.302 0 374.693 0 387.177C0 391.373 0.670054 395.5 2.01016 399.449C2.43335 400.719 3.49133 401.671 4.79618 401.953C6.10102 402.271 7.44113 401.847 8.39331 400.931L24.2983 384.884H31.9863L40.7322 393.63V401.318L24.6862 417.223C23.734 418.176 23.3461 419.516 23.6635 420.821C23.9809 422.125 24.9331 423.148 26.1674 423.607C30.1172 424.947 34.2433 425.617 38.4399 425.617C50.9594 425.617 62.315 419.798 69.6151 409.641C76.4567 400.119 78.5726 388.446 75.5398 377.267L98.1805 354.626L103.365 360.269L101.002 362.632C99.4854 364.148 99.4854 366.546 101.002 368.063C102.518 369.544 104.916 369.544 106.433 368.063L108.584 365.911L157.216 418.74C157.251 418.775 157.286 418.81 157.322 418.846C166.314 427.838 180.915 427.838 189.907 418.846C198.9 409.853 198.9 395.253 189.907 386.26C189.872 386.225 189.837 386.189 189.802 386.154L136.832 337.593L138.948 335.477C140.464 333.996 140.464 331.562 138.948 330.046C137.432 328.529 135.033 328.529 133.517 330.046L131.154 332.409L125.512 327.225L148.258 304.478C151.503 305.36 154.818 305.783 158.203 305.783C179.363 305.783 196.608 288.573 196.608 267.378C196.608 263.182 195.938 259.055 194.598 255.106C194.175 253.836 193.152 252.884 191.847 252.602ZM33.7143 268.119C33.009 267.413 32.0215 267.026 30.9988 267.026H22.3234L8.67543 244.279L15.3054 237.649L38.0167 251.297V259.972C38.0167 260.995 38.4047 261.947 39.1453 262.688L87.3891 311.037L81.9582 316.468L33.7143 268.119ZM131.401 343.024L184.512 391.726C190.436 397.721 190.436 407.419 184.441 413.415C178.446 419.41 168.783 419.41 162.753 413.45L113.944 360.445L131.401 343.024ZM125.723 337.84L108.76 354.803L103.576 349.16L120.081 332.656L125.723 337.84ZM158.203 298.095C154.853 298.095 151.538 297.566 148.399 296.508C147.024 296.049 145.507 296.402 144.45 297.425C125.194 316.68 83.7215 358.153 68.4513 373.423C67.4286 374.446 67.0759 375.997 67.5344 377.373C70.7436 386.859 69.1919 396.945 63.3377 405.127C57.4836 413.274 48.4202 417.929 38.4047 417.929C37.2762 417.929 36.1476 417.858 35.0544 417.752L47.2564 405.656C47.997 404.951 48.3849 403.963 48.3849 402.941V392.079C48.3849 391.056 47.997 390.069 47.2564 389.363L36.2534 378.36C35.5481 377.655 34.5607 377.232 33.538 377.232H22.676C21.6533 377.232 20.6659 377.655 19.9606 378.36L7.86432 390.562C7.75852 389.469 7.68799 388.341 7.68799 387.212C7.68799 377.196 12.3431 368.133 20.4895 362.279C28.636 356.425 38.7573 354.908 48.2439 358.082C49.6193 358.541 51.1357 358.188 52.1937 357.165C52.4053 356.954 128.157 281.202 128.192 281.167C129.215 280.144 129.567 278.593 129.109 277.217C125.9 267.731 127.451 257.645 133.305 249.498C139.16 241.352 148.223 236.697 158.239 236.697C159.402 236.697 160.531 236.767 161.695 236.873L149.739 249.005C149.034 249.71 148.646 250.697 148.646 251.685V262.547C148.646 263.534 149.034 264.486 149.739 265.227L160.354 276.23C161.095 276.971 162.083 277.394 163.105 277.394H173.967C174.99 277.394 175.977 276.971 176.683 276.265L188.779 264.063C188.885 265.156 188.955 266.285 188.955 267.413C188.92 284.306 175.166 298.095 158.203 298.095Z" fill="white"/>
</g>
<defs>
<clipPath id="clip0_10_482">
<rect width="196.749" height="196.749" fill="white" transform="translate(319.994)"/>
</clipPath>
<clipPath id="clip1_10_482">
<rect width="203.026" height="203.026" fill="white" transform="translate(317.15 228.974)"/>
</clipPath>
<clipPath id="clip2_10_482">
<rect width="196.608" height="196.608" fill="white" transform="translate(0 228.974)"/>
</clipPath>
</defs>
</svg>
